<?xml version="1.0" encoding="UTF-8" ?>
<svg version="1.1" width="32" height="32" xmlns="http://www.w3.org/2000/svg" shape-rendering="crispEdges">
<rect x="26" y="2" width="3" height="1" fill="#271F1B" />
<rect x="26" y="3" width="1" height="13" fill="#271F1B" />
<rect x="27" y="3" width="1" height="7" fill="#B9451D" />
<rect x="28" y="3" width="3" height="1" fill="#271F1B" />
<rect x="9" y="4" width="9" height="1" fill="#323821" />
<rect x="28" y="4" width="2" height="4" fill="#B9451D" />
<rect x="30" y="4" width="2" height="1" fill="#271F1B" />
<rect x="6" y="5" width="3" height="1" fill="#323821" />
<rect x="9" y="5" width="2" height="2" fill="#88A043" />
<rect x="11" y="5" width="7" height="1" fill="#9FBC4D" />
<rect x="18" y="5" width="1" height="7" fill="#323821" />
<rect x="30" y="5" width="2" height="1" fill="#B9451D" />
<rect x="5" y="6" width="2" height="1" fill="#323821" />
<rect x="7" y="6" width="2" height="1" fill="#88A043" />
<rect x="11" y="6" width="1" height="4" fill="#88A043" />
<rect x="12" y="6" width="2" height="1" fill="#9FBC4D" />
<rect x="14" y="6" width="3" height="1" fill="#88A043" />
<rect x="17" y="6" width="1" height="1" fill="#9FBC4D" />
<rect x="30" y="6" width="1" height="1" fill="#B9451D" />
<rect x="31" y="6" width="1" height="1" fill="#181C19" />
<rect x="4" y="7" width="1" height="3" fill="#323821" />
<rect x="5" y="7" width="1" height="2" fill="#C43F31" />
<rect x="6" y="7" width="1" height="3" fill="#323821" />
<rect x="7" y="7" width="1" height="3" fill="#88A043" />
<rect x="8" y="7" width="1" height="3" fill="#FFFFFF" />
<rect x="9" y="7" width="1" height="2" fill="#323821" />
<rect x="10" y="7" width="1" height="1" fill="#88A043" />
<rect x="12" y="7" width="1" height="5" fill="#9FBC4D" />
<rect x="13" y="7" width="1" height="1" fill="#323821" />
<rect x="14" y="7" width="3" height="4" fill="#9FBC4D" />
<rect x="17" y="7" width="1" height="1" fill="#323821" />
<rect x="30" y="7" width="2" height="1" fill="#271F1B" />
<rect x="10" y="8" width="1" height="2" fill="#FFFFFF" />
<rect x="13" y="8" width="1" height="6" fill="#9FBC4D" />
<rect x="17" y="8" width="1" height="3" fill="#9FBC4D" />
<rect x="28" y="8" width="1" height="1" fill="#B9451D" />
<rect x="29" y="8" width="2" height="1" fill="#271F1B" />
<rect x="5" y="9" width="1" height="4" fill="#323821" />
<rect x="9" y="9" width="1" height="1" fill="#FFFFFF" />
<rect x="28" y="9" width="2" height="1" fill="#271F1B" />
<rect x="6" y="10" width="1" height="2" fill="#C43F31" />
<rect x="7" y="10" width="1" height="4" fill="#323821" />
<rect x="8" y="10" width="3" height="3" fill="#88A043" />
<rect x="11" y="10" width="1" height="1" fill="#9FBC4D" />
<rect x="27" y="10" width="2" height="1" fill="#271F1B" />
<rect x="11" y="11" width="1" height="2" fill="#88A043" />
<rect x="14" y="11" width="2" height="1" fill="#9FBC4D" />
<rect x="16" y="11" width="2" height="1" fill="#323821" />
<rect x="27" y="11" width="1" height="1" fill="#271F1B" />
<rect x="6" y="12" width="1" height="1" fill="#323821" />
<rect x="12" y="12" width="1" height="1" fill="#88A043" />
<rect x="14" y="12" width="2" height="1" fill="#323821" />
<rect x="8" y="13" width="1" height="3" fill="#323821" />
<rect x="9" y="13" width="2" height="1" fill="#88A043" />
<rect x="11" y="13" width="2" height="1" fill="#9FBC4D" />
<rect x="14" y="13" width="1" height="1" fill="#9FBC4D" />
<rect x="15" y="13" width="1" height="4" fill="#323821" />
<rect x="9" y="14" width="1" height="7" fill="#88A043" />
<rect x="10" y="14" width="1" height="3" fill="#D8B78F" />
<rect x="11" y="14" width="4" height="3" fill="#FFD7A8" />
<rect x="21" y="15" width="5" height="1" fill="#271F1B" />
<rect x="27" y="15" width="5" height="1" fill="#271F1B" />
<rect x="6" y="16" width="2" height="1" fill="#323821" />
<rect x="8" y="16" width="1" height="1" fill="#9FBC4D" />
<rect x="16" y="16" width="1" height="3" fill="#323821" />
<rect x="21" y="16" width="1" height="16" fill="#271F1B" />
<rect x="22" y="16" width="10" height="16" fill="#F8C53A" />
<rect x="6" y="17" width="1" height="2" fill="#323821" />
<rect x="7" y="17" width="1" height="1" fill="#9FBC4D" />
<rect x="8" y="17" width="1" height="1" fill="#88A043" />
<rect x="10" y="17" width="1" height="1" fill="#88A043" />
<rect x="11" y="17" width="1" height="2" fill="#9FBC4D" />
<rect x="12" y="17" width="2" height="1" fill="#D8B78F" />
<rect x="14" y="17" width="2" height="1" fill="#9FBC4D" />
<rect x="7" y="18" width="2" height="1" fill="#323821" />
<rect x="10" y="18" width="1" height="2" fill="#9FBC4D" />
<rect x="12" y="18" width="2" height="1" fill="#9FBC4D" />
<rect x="14" y="18" width="2" height="1" fill="#88A043" />
<rect x="8" y="19" width="1" height="3" fill="#323821" />
<rect x="11" y="19" width="5" height="1" fill="#323821" />
<rect x="10" y="20" width="1" height="1" fill="#323821" />
<rect x="9" y="21" width="1" height="1" fill="#323821" />
<rect x="12" y="21" width="9" height="1" fill="#271F1B" />
<rect x="12" y="22" width="1" height="10" fill="#271F1B" />
<rect x="13" y="22" width="8" height="10" fill="#F8C53A" />
<rect x="4" y="24" width="8" height="1" fill="#271F1B" />
<rect x="4" y="25" width="1" height="3" fill="#271F1B" />
<rect x="5" y="25" width="7" height="7" fill="#F8C53A" />
<rect x="0" y="28" width="5" height="1" fill="#181C19" />
<rect x="0" y="29" width="4" height="3" fill="#F8C53A" />
<rect x="4" y="29" width="1" height="3" fill="#271F1B" />
</svg>