<?xml version="1.0" encoding="UTF-8" ?>
<svg version="1.1" width="64" height="64" xmlns="http://www.w3.org/2000/svg" shape-rendering="crispEdges">
<rect x="6" y="0" width="1" height="1" fill="#9494A5" opacity="0.121569" />
<rect x="7" y="0" width="1" height="1" fill="#9595A3" opacity="0.435294" />
<rect x="8" y="0" width="1" height="1" fill="#9595A2" opacity="0.623529" />
<rect x="9" y="0" width="3" height="1" fill="#9696A3" opacity="0.749020" />
<rect x="12" y="0" width="40" height="4" fill="#9696A3" />
<rect x="52" y="0" width="3" height="1" fill="#9696A3" opacity="0.749020" />
<rect x="55" y="0" width="1" height="1" fill="#9595A2" opacity="0.623529" />
<rect x="56" y="0" width="1" height="1" fill="#9595A3" opacity="0.435294" />
<rect x="57" y="0" width="1" height="1" fill="#9494A5" opacity="0.121569" />
<rect x="4" y="1" width="1" height="1" fill="#9696A2" opacity="0.247059" />
<rect x="5" y="1" width="1" height="1" fill="#9696A3" opacity="0.749020" />
<rect x="6" y="1" width="6" height="3" fill="#9696A3" />
<rect x="52" y="1" width="6" height="3" fill="#9696A3" />
<rect x="58" y="1" width="1" height="1" fill="#9696A3" opacity="0.749020" />
<rect x="59" y="1" width="1" height="1" fill="#9696A2" opacity="0.247059" />
<rect x="3" y="2" width="1" height="1" fill="#9696A2" opacity="0.560784" />
<rect x="4" y="2" width="2" height="4" fill="#9696A3" />
<rect x="58" y="2" width="2" height="4" fill="#9696A3" />
<rect x="60" y="2" width="1" height="1" fill="#9696A2" opacity="0.560784" />
<rect x="2" y="3" width="1" height="1" fill="#9595A2" opacity="0.623529" />
<rect x="3" y="3" width="1" height="58" fill="#9696A3" />
<rect x="60" y="3" width="1" height="58" fill="#9696A3" />
<rect x="61" y="3" width="1" height="1" fill="#9595A2" opacity="0.623529" />
<rect x="1" y="4" width="1" height="1" fill="#9494A1" opacity="0.309804" />
<rect x="2" y="4" width="1" height="56" fill="#9696A3" />
<rect x="6" y="4" width="1" height="1" fill="#9696A3" />
<rect x="7" y="4" width="1" height="1" fill="#A3A3AE" />
<rect x="8" y="4" width="1" height="1" fill="#C3C3CB" />
<rect x="9" y="4" width="1" height="1" fill="#DEDEE2" />
<rect x="10" y="4" width="2" height="1" fill="#E4E4E8" />
<rect x="12" y="4" width="40" height="4" fill="#FFFFFF" />
<rect x="52" y="4" width="2" height="1" fill="#E4E4E8" />
<rect x="54" y="4" width="1" height="1" fill="#DEDEE2" />
<rect x="55" y="4" width="1" height="1" fill="#C3C3CB" />
<rect x="56" y="4" width="1" height="1" fill="#A3A3AE" />
<rect x="57" y="4" width="1" height="1" fill="#9696A3" />
<rect x="61" y="4" width="1" height="56" fill="#9696A3" />
<rect x="62" y="4" width="1" height="1" fill="#9494A1" opacity="0.309804" />
<rect x="1" y="5" width="1" height="1" fill="#9696A2" opacity="0.874510" />
<rect x="6" y="5" width="1" height="1" fill="#CACAD1" />
<rect x="7" y="5" width="5" height="3" fill="#FFFFFF" />
<rect x="52" y="5" width="5" height="3" fill="#FFFFFF" />
<rect x="57" y="5" width="1" height="1" fill="#CACAD1" />
<rect x="62" y="5" width="1" height="1" fill="#9696A2" opacity="0.874510" />
<rect x="0" y="6" width="1" height="1" fill="#9494A1" opacity="0.309804" />
<rect x="1" y="6" width="1" height="52" fill="#9696A3" />
<rect x="4" y="6" width="1" height="1" fill="#9696A3" />
<rect x="5" y="6" width="1" height="1" fill="#D1D1D6" />
<rect x="6" y="6" width="1" height="52" fill="#FFFFFF" />
<rect x="57" y="6" width="1" height="52" fill="#FFFFFF" />
<rect x="58" y="6" width="1" height="1" fill="#D1D1D6" />
<rect x="59" y="6" width="1" height="1" fill="#9696A3" />
<rect x="62" y="6" width="1" height="52" fill="#9696A3" />
<rect x="63" y="6" width="1" height="1" fill="#9494A1" opacity="0.309804" />
<rect x="0" y="7" width="1" height="1" fill="#9595A2" opacity="0.623529" />
<rect x="4" y="7" width="1" height="1" fill="#B0B0BA" />
<rect x="5" y="7" width="1" height="50" fill="#FFFFFF" />
<rect x="58" y="7" width="1" height="50" fill="#FFFFFF" />
<rect x="59" y="7" width="1" height="1" fill="#B0B0BA" />
<rect x="63" y="7" width="1" height="1" fill="#9595A2" opacity="0.623529" />
<rect x="0" y="8" width="1" height="1" fill="#9595A3" opacity="0.811765" />
<rect x="4" y="8" width="1" height="1" fill="#D7D7DC" />
<rect x="7" y="8" width="2" height="1" fill="#FFFFFF" />
<rect x="9" y="8" width="1" height="1" fill="#F1F1F6" />
<rect x="10" y="8" width="2" height="1" fill="#E3E4ED" />
<rect x="12" y="8" width="40" height="6" fill="#DADCE7" />
<rect x="52" y="8" width="2" height="1" fill="#E3E4ED" />
<rect x="54" y="8" width="1" height="1" fill="#F1F1F6" />
<rect x="55" y="8" width="2" height="1" fill="#FFFFFF" />
<rect x="59" y="8" width="1" height="1" fill="#D7D7DC" />
<rect x="63" y="8" width="1" height="1" fill="#9595A3" opacity="0.811765" />
<rect x="0" y="9" width="1" height="45" fill="#9696A3" />
<rect x="4" y="9" width="1" height="1" fill="#F1F1F3" />
<rect x="7" y="9" width="1" height="50" fill="#FFFFFF" />
<rect x="8" y="9" width="1" height="1" fill="#ECEDF3" />
<rect x="9" y="9" width="3" height="46" fill="#DADCE7" />
<rect x="52" y="9" width="3" height="46" fill="#DADCE7" />
<rect x="55" y="9" width="1" height="1" fill="#ECEDF3" />
<rect x="56" y="9" width="1" height="50" fill="#FFFFFF" />
<rect x="59" y="9" width="1" height="1" fill="#F1F1F3" />
<rect x="63" y="9" width="1" height="45" fill="#9696A3" />
<rect x="4" y="10" width="1" height="44" fill="#FFFFFF" />
<rect x="8" y="10" width="1" height="1" fill="#DCDEE8" />
<rect x="55" y="10" width="1" height="1" fill="#DCDEE8" />
<rect x="59" y="10" width="1" height="44" fill="#FFFFFF" />
<rect x="8" y="11" width="1" height="42" fill="#DADCE7" />
<rect x="55" y="11" width="1" height="42" fill="#DADCE7" />
<rect x="12" y="14" width="28" height="1" fill="#DADCE7" />
<rect x="40" y="14" width="1" height="1" fill="#BFCED2" />
<rect x="41" y="14" width="1" height="1" fill="#7CAB9E" />
<rect x="42" y="14" width="4" height="1" fill="#39886A" />
<rect x="46" y="14" width="1" height="1" fill="#7CAB9E" />
<rect x="47" y="14" width="1" height="1" fill="#BFCED2" />
<rect x="48" y="14" width="4" height="1" fill="#DADCE7" />
<rect x="12" y="15" width="27" height="1" fill="#DADCE7" />
<rect x="39" y="15" width="1" height="1" fill="#619D89" />
<rect x="40" y="15" width="8" height="3" fill="#046D41" />
<rect x="48" y="15" width="1" height="1" fill="#39886A" />
<rect x="49" y="15" width="3" height="1" fill="#DADCE7" />
<rect x="12" y="16" width="25" height="2" fill="#DADCE7" />
<rect x="37" y="16" width="1" height="1" fill="#CCD5DC" />
<rect x="38" y="16" width="1" height="1" fill="#2C8160" />
<rect x="39" y="16" width="1" height="5" fill="#046D41" />
<rect x="48" y="16" width="1" height="12" fill="#046D41" />
<rect x="49" y="16" width="1" height="1" fill="#6FA494" />
<rect x="50" y="16" width="2" height="1" fill="#DADCE7" />
<rect x="37" y="17" width="1" height="1" fill="#619D89" />
<rect x="38" y="17" width="1" height="5" fill="#046D41" />
<rect x="49" y="17" width="1" height="10" fill="#046D41" />
<rect x="50" y="17" width="1" height="1" fill="#89B2A8" />
<rect x="51" y="17" width="1" height="1" fill="#DADCE7" />
<rect x="12" y="18" width="24" height="1" fill="#DADCE7" />
<rect x="36" y="18" width="1" height="1" fill="#89B2A8" />
<rect x="37" y="18" width="1" height="5" fill="#046D41" />
<rect x="40" y="18" width="1" height="1" fill="#046D41" />
<rect x="41" y="18" width="1" height="1" fill="#097A4B" />
<rect x="42" y="18" width="1" height="1" fill="#1EAF73" />
<rect x="43" y="18" width="2" height="1" fill="#24BC7D" />
<rect x="45" y="18" width="1" height="1" fill="#1EAF73" />
<rect x="46" y="18" width="1" height="1" fill="#0C8050" />
<rect x="47" y="18" width="1" height="1" fill="#046D41" />
<rect x="50" y="18" width="1" height="1" fill="#11734B" />
<rect x="51" y="18" width="1" height="1" fill="#BFCED2" />
<rect x="12" y="19" width="23" height="1" fill="#DADCE7" />
<rect x="35" y="19" width="1" height="1" fill="#B1C7C7" />
<rect x="36" y="19" width="1" height="1" fill="#11734B" />
<rect x="40" y="19" width="1" height="1" fill="#067346" />
<rect x="41" y="19" width="1" height="1" fill="#2CD08C" />
<rect x="42" y="19" width="4" height="7" fill="#2FD792" />
<rect x="46" y="19" width="1" height="1" fill="#26C382" />
<rect x="47" y="19" width="1" height="1" fill="#067346" />
<rect x="50" y="19" width="1" height="7" fill="#046D41" />
<rect x="51" y="19" width="1" height="1" fill="#54967F" />
<rect x="12" y="20" width="22" height="2" fill="#DADCE7" />
<rect x="34" y="20" width="1" height="1" fill="#CCD5DC" />
<rect x="35" y="20" width="1" height="1" fill="#1E7A55" />
<rect x="36" y="20" width="1" height="4" fill="#046D41" />
<rect x="40" y="20" width="1" height="1" fill="#21B578" />
<rect x="41" y="20" width="1" height="11" fill="#2FD792" />
<rect x="46" y="20" width="1" height="4" fill="#2FD792" />
<rect x="47" y="20" width="1" height="1" fill="#21B578" />
<rect x="51" y="20" width="1" height="1" fill="#1E7A55" />
<rect x="34" y="21" width="1" height="1" fill="#39886A" />
<rect x="35" y="21" width="1" height="5" fill="#046D41" />
<rect x="39" y="21" width="1" height="1" fill="#1CA86E" />
<rect x="40" y="21" width="1" height="11" fill="#2FD792" />
<rect x="47" y="21" width="1" height="2" fill="#2FD792" />
<rect x="51" y="21" width="1" height="2" fill="#046D41" />
<rect x="12" y="22" width="21" height="1" fill="#DADCE7" />
<rect x="33" y="22" width="1" height="1" fill="#619D89" />
<rect x="34" y="22" width="1" height="5" fill="#046D41" />
<rect x="38" y="22" width="1" height="1" fill="#14945F" />
<rect x="39" y="22" width="1" height="11" fill="#2FD792" />
<rect x="12" y="23" width="20" height="1" fill="#DADCE7" />
<rect x="32" y="23" width="1" height="1" fill="#89B2A8" />
<rect x="33" y="23" width="1" height="5" fill="#046D41" />
<rect x="37" y="23" width="1" height="1" fill="#0C8050" />
<rect x="38" y="23" width="1" height="1" fill="#2CD08C" />
<rect x="47" y="23" width="1" height="1" fill="#24BC7D" />
<rect x="51" y="23" width="1" height="1" fill="#11734B" />
<rect x="12" y="24" width="6" height="1" fill="#DADCE7" />
<rect x="18" y="24" width="1" height="1" fill="#B1C7C7" />
<rect x="19" y="24" width="3" height="1" fill="#A4C0BD" />
<rect x="22" y="24" width="1" height="1" fill="#CCD5DC" />
<rect x="23" y="24" width="8" height="1" fill="#DADCE7" />
<rect x="31" y="24" width="1" height="1" fill="#B1C7C7" />
<rect x="32" y="24" width="1" height="1" fill="#11734B" />
<rect x="36" y="24" width="1" height="1" fill="#067346" />
<rect x="37" y="24" width="1" height="1" fill="#29C987" />
<rect x="38" y="24" width="1" height="10" fill="#2FD792" />
<rect x="46" y="24" width="1" height="1" fill="#2CD08C" />
<rect x="47" y="24" width="1" height="1" fill="#0C8050" />
<rect x="51" y="24" width="1" height="1" fill="#468F74" />
<rect x="12" y="25" width="3" height="1" fill="#DADCE7" />
<rect x="15" y="25" width="1" height="1" fill="#A4C0BD" />
<rect x="16" y="25" width="1" height="1" fill="#54967F" />
<rect x="17" y="25" width="1" height="1" fill="#11734B" />
<rect x="18" y="25" width="5" height="3" fill="#046D41" />
<rect x="23" y="25" width="1" height="1" fill="#54967F" />
<rect x="24" y="25" width="1" height="1" fill="#BFCED2" />
<rect x="25" y="25" width="5" height="1" fill="#DADCE7" />
<rect x="30" y="25" width="1" height="1" fill="#CCD5DC" />
<rect x="31" y="25" width="1" height="1" fill="#1E7A55" />
<rect x="32" y="25" width="1" height="4" fill="#046D41" />
<rect x="36" y="25" width="1" height="1" fill="#26C382" />
<rect x="37" y="25" width="1" height="10" fill="#2FD792" />
<rect x="46" y="25" width="1" height="1" fill="#118E5A" />
<rect x="47" y="25" width="1" height="5" fill="#046D41" />
<rect x="51" y="25" width="1" height="1" fill="#A4C0BD" />
<rect x="12" y="26" width="2" height="1" fill="#DADCE7" />
<rect x="14" y="26" width="1" height="1" fill="#B1C7C7" />
<rect x="15" y="26" width="3" height="3" fill="#046D41" />
<rect x="23" y="26" width="1" height="4" fill="#046D41" />
<rect x="24" y="26" width="1" height="1" fill="#11734B" />
<rect x="25" y="26" width="1" height="1" fill="#97B9B3" />
<rect x="26" y="26" width="4" height="1" fill="#DADCE7" />
<rect x="30" y="26" width="1" height="1" fill="#39886A" />
<rect x="31" y="26" width="1" height="4" fill="#046D41" />
<rect x="35" y="26" width="1" height="1" fill="#1EAF73" />
<rect x="36" y="26" width="1" height="11" fill="#2FD792" />
<rect x="42" y="26" width="3" height="1" fill="#2FD792" />
<rect x="45" y="26" width="1" height="1" fill="#19A269" />
<rect x="46" y="26" width="1" height="5" fill="#046D41" />
<rect x="50" y="26" width="1" height="1" fill="#39886A" />
<rect x="51" y="26" width="1" height="30" fill="#DADCE7" />
<rect x="12" y="27" width="1" height="2" fill="#DADCE7" />
<rect x="13" y="27" width="1" height="1" fill="#B1C7C7" />
<rect x="14" y="27" width="1" height="1" fill="#11734B" />
<rect x="24" y="27" width="2" height="4" fill="#046D41" />
<rect x="26" y="27" width="1" height="1" fill="#A4C0BD" />
<rect x="27" y="27" width="2" height="1" fill="#DADCE7" />
<rect x="29" y="27" width="1" height="1" fill="#619D89" />
<rect x="30" y="27" width="1" height="5" fill="#046D41" />
<rect x="34" y="27" width="1" height="1" fill="#14945F" />
<rect x="35" y="27" width="1" height="11" fill="#2FD792" />
<rect x="42" y="27" width="2" height="1" fill="#2FD792" />
<rect x="44" y="27" width="1" height="1" fill="#1EAF73" />
<rect x="45" y="27" width="1" height="5" fill="#046D41" />
<rect x="49" y="27" width="1" height="1" fill="#1E7A55" />
<rect x="50" y="27" width="1" height="1" fill="#CCD5DC" />
<rect x="13" y="28" width="1" height="1" fill="#2C8160" />
<rect x="14" y="28" width="1" height="10" fill="#046D41" />
<rect x="18" y="28" width="1" height="1" fill="#097A4B" />
<rect x="19" y="28" width="2" height="1" fill="#0E8755" />
<rect x="21" y="28" width="1" height="1" fill="#097A4B" />
<rect x="22" y="28" width="1" height="1" fill="#046D41" />
<rect x="26" y="28" width="1" height="1" fill="#2C8160" />
<rect x="27" y="28" width="1" height="1" fill="#CCD5DC" />
<rect x="28" y="28" width="1" height="1" fill="#89B2A8" />
<rect x="29" y="28" width="1" height="5" fill="#046D41" />
<rect x="33" y="28" width="1" height="1" fill="#0E8755" />
<rect x="34" y="28" width="1" height="11" fill="#2FD792" />
<rect x="42" y="28" width="1" height="1" fill="#2FD792" />
<rect x="43" y="28" width="1" height="1" fill="#26C382" />
<rect x="44" y="28" width="1" height="1" fill="#067346" />
<rect x="48" y="28" width="1" height="1" fill="#11734B" />
<rect x="49" y="28" width="1" height="1" fill="#B1C7C7" />
<rect x="50" y="28" width="1" height="28" fill="#DADCE7" />
<rect x="12" y="29" width="1" height="1" fill="#89B2A8" />
<rect x="13" y="29" width="1" height="7" fill="#046D41" />
<rect x="15" y="29" width="2" height="1" fill="#046D41" />
<rect x="17" y="29" width="1" height="1" fill="#19A269" />
<rect x="18" y="29" width="4" height="7" fill="#2FD792" />
<rect x="22" y="29" width="1" height="1" fill="#1CA86E" />
<rect x="26" y="29" width="1" height="5" fill="#046D41" />
<rect x="27" y="29" width="1" height="1" fill="#39886A" />
<rect x="28" y="29" width="1" height="1" fill="#11734B" />
<rect x="32" y="29" width="1" height="1" fill="#097A4B" />
<rect x="33" y="29" width="1" height="1" fill="#2CD08C" />
<rect x="42" y="29" width="1" height="1" fill="#2CD08C" />
<rect x="43" y="29" width="1" height="1" fill="#097A4B" />
<rect x="44" y="29" width="1" height="4" fill="#046D41" />
<rect x="48" y="29" width="1" height="1" fill="#97B9B3" />
<rect x="49" y="29" width="1" height="27" fill="#DADCE7" />
<rect x="12" y="30" width="1" height="1" fill="#468F74" />
<rect x="15" y="30" width="1" height="9" fill="#046D41" />
<rect x="16" y="30" width="1" height="1" fill="#14945F" />
<rect x="17" y="30" width="1" height="5" fill="#2FD792" />
<rect x="22" y="30" width="1" height="11" fill="#2FD792" />
<rect x="23" y="30" width="1" height="1" fill="#118E5A" />
<rect x="27" y="30" width="2" height="4" fill="#046D41" />
<rect x="31" y="30" width="1" height="1" fill="#067346" />
<rect x="32" y="30" width="1" height="1" fill="#26C382" />
<rect x="33" y="30" width="1" height="10" fill="#2FD792" />
<rect x="42" y="30" width="1" height="1" fill="#0C8050" />
<rect x="43" y="30" width="1" height="5" fill="#046D41" />
<rect x="47" y="30" width="1" height="1" fill="#6FA494" />
<rect x="48" y="30" width="1" height="26" fill="#DADCE7" />
<rect x="12" y="31" width="1" height="3" fill="#046D41" />
<rect x="16" y="31" width="1" height="1" fill="#29C987" />
<rect x="23" y="31" width="1" height="1" fill="#2CD08C" />
<rect x="24" y="31" width="1" height="1" fill="#0C8050" />
<rect x="25" y="31" width="1" height="1" fill="#046D41" />
<rect x="31" y="31" width="1" height="1" fill="#21B578" />
<rect x="32" y="31" width="1" height="11" fill="#2FD792" />
<rect x="41" y="31" width="1" height="1" fill="#14945F" />
<rect x="42" y="31" width="1" height="5" fill="#046D41" />
<rect x="46" y="31" width="1" height="1" fill="#468F74" />
<rect x="47" y="31" width="1" height="25" fill="#DADCE7" />
<rect x="16" y="32" width="1" height="1" fill="#2FD792" />
<rect x="23" y="32" width="1" height="11" fill="#2FD792" />
<rect x="24" y="32" width="1" height="1" fill="#29C987" />
<rect x="25" y="32" width="1" height="1" fill="#067346" />
<rect x="30" y="32" width="1" height="1" fill="#19A269" />
<rect x="31" y="32" width="1" height="11" fill="#2FD792" />
<rect x="40" y="32" width="1" height="1" fill="#1EAF73" />
<rect x="41" y="32" width="1" height="5" fill="#046D41" />
<rect x="45" y="32" width="1" height="1" fill="#2C8160" />
<rect x="46" y="32" width="1" height="1" fill="#CCD5DC" />
<rect x="16" y="33" width="1" height="1" fill="#29C987" />
<rect x="24" y="33" width="1" height="11" fill="#2FD792" />
<rect x="25" y="33" width="1" height="1" fill="#26C382" />
<rect x="29" y="33" width="1" height="1" fill="#118E5A" />
<rect x="30" y="33" width="1" height="11" fill="#2FD792" />
<rect x="39" y="33" width="1" height="1" fill="#26C382" />
<rect x="40" y="33" width="1" height="5" fill="#046D41" />
<rect x="44" y="33" width="1" height="1" fill="#11734B" />
<rect x="45" y="33" width="1" height="1" fill="#B1C7C7" />
<rect x="46" y="33" width="1" height="23" fill="#DADCE7" />
<rect x="12" y="34" width="1" height="1" fill="#2C8160" />
<rect x="16" y="34" width="1" height="1" fill="#169B64" />
<rect x="25" y="34" width="1" height="11" fill="#2FD792" />
<rect x="26" y="34" width="1" height="1" fill="#1EAF73" />
<rect x="27" y="34" width="1" height="1" fill="#046D41" />
<rect x="28" y="34" width="1" height="1" fill="#0C8050" />
<rect x="29" y="34" width="1" height="1" fill="#2CD08C" />
<rect x="38" y="34" width="1" height="1" fill="#2CD08C" />
<rect x="39" y="34" width="1" height="1" fill="#067346" />
<rect x="44" y="34" width="1" height="1" fill="#A4C0BD" />
<rect x="45" y="34" width="1" height="22" fill="#DADCE7" />
<rect x="12" y="35" width="1" height="1" fill="#6FA494" />
<rect x="16" y="35" width="1" height="5" fill="#046D41" />
<rect x="17" y="35" width="1" height="1" fill="#21B578" />
<rect x="26" y="35" width="1" height="10" fill="#2FD792" />
<rect x="27" y="35" width="1" height="1" fill="#19A269" />
<rect x="28" y="35" width="1" height="1" fill="#29C987" />
<rect x="29" y="35" width="1" height="10" fill="#2FD792" />
<rect x="37" y="35" width="1" height="1" fill="#2CD08C" />
<rect x="38" y="35" width="1" height="1" fill="#0C8050" />
<rect x="39" y="35" width="1" height="5" fill="#046D41" />
<rect x="43" y="35" width="1" height="1" fill="#7CAB9E" />
<rect x="44" y="35" width="1" height="21" fill="#DADCE7" />
<rect x="12" y="36" width="1" height="1" fill="#CCD5DC" />
<rect x="13" y="36" width="1" height="1" fill="#11734B" />
<rect x="17" y="36" width="1" height="1" fill="#067346" />
<rect x="18" y="36" width="1" height="1" fill="#26C382" />
<rect x="19" y="36" width="3" height="1" fill="#2FD792" />
<rect x="27" y="36" width="2" height="10" fill="#2FD792" />
<rect x="37" y="36" width="1" height="1" fill="#14945F" />
<rect x="38" y="36" width="1" height="5" fill="#046D41" />
<rect x="42" y="36" width="1" height="1" fill="#54967F" />
<rect x="43" y="36" width="1" height="20" fill="#DADCE7" />
<rect x="12" y="37" width="1" height="19" fill="#DADCE7" />
<rect x="13" y="37" width="1" height="1" fill="#89B2A8" />
<rect x="17" y="37" width="1" height="4" fill="#046D41" />
<rect x="18" y="37" width="1" height="1" fill="#0C8050" />
<rect x="19" y="37" width="1" height="1" fill="#2CD08C" />
<rect x="20" y="37" width="2" height="2" fill="#2FD792" />
<rect x="36" y="37" width="1" height="1" fill="#1CA86E" />
<rect x="37" y="37" width="1" height="5" fill="#046D41" />
<rect x="41" y="37" width="1" height="1" fill="#2C8160" />
<rect x="42" y="37" width="1" height="19" fill="#DADCE7" />
<rect x="13" y="38" width="1" height="18" fill="#DADCE7" />
<rect x="14" y="38" width="1" height="1" fill="#619D89" />
<rect x="18" y="38" width="1" height="5" fill="#046D41" />
<rect x="19" y="38" width="1" height="1" fill="#14945F" />
<rect x="35" y="38" width="1" height="1" fill="#21B578" />
<rect x="36" y="38" width="1" height="5" fill="#046D41" />
<rect x="40" y="38" width="1" height="1" fill="#11734B" />
<rect x="41" y="38" width="1" height="1" fill="#CCD5DC" />
<rect x="14" y="39" width="1" height="17" fill="#DADCE7" />
<rect x="15" y="39" width="1" height="1" fill="#468F74" />
<rect x="19" y="39" width="1" height="5" fill="#046D41" />
<rect x="20" y="39" width="1" height="1" fill="#1CA86E" />
<rect x="21" y="39" width="1" height="1" fill="#2FD792" />
<rect x="34" y="39" width="1" height="1" fill="#26C382" />
<rect x="35" y="39" width="1" height="1" fill="#067346" />
<rect x="40" y="39" width="1" height="1" fill="#B1C7C7" />
<rect x="41" y="39" width="1" height="17" fill="#DADCE7" />
<rect x="15" y="40" width="1" height="1" fill="#CCD5DC" />
<rect x="16" y="40" width="1" height="1" fill="#2C8160" />
<rect x="20" y="40" width="1" height="5" fill="#046D41" />
<rect x="21" y="40" width="1" height="1" fill="#24BC7D" />
<rect x="33" y="40" width="1" height="1" fill="#2CD08C" />
<rect x="34" y="40" width="1" height="1" fill="#0C8050" />
<rect x="35" y="40" width="1" height="4" fill="#046D41" />
<rect x="39" y="40" width="1" height="1" fill="#89B2A8" />
<rect x="40" y="40" width="1" height="16" fill="#DADCE7" />
<rect x="15" y="41" width="1" height="15" fill="#DADCE7" />
<rect x="16" y="41" width="1" height="1" fill="#B1C7C7" />
<rect x="17" y="41" width="1" height="1" fill="#11734B" />
<rect x="21" y="41" width="1" height="1" fill="#067346" />
<rect x="22" y="41" width="1" height="1" fill="#29C987" />
<rect x="33" y="41" width="1" height="1" fill="#118E5A" />
<rect x="34" y="41" width="1" height="5" fill="#046D41" />
<rect x="38" y="41" width="1" height="1" fill="#54967F" />
<rect x="39" y="41" width="1" height="15" fill="#DADCE7" />
<rect x="16" y="42" width="1" height="14" fill="#DADCE7" />
<rect x="17" y="42" width="1" height="1" fill="#97B9B3" />
<rect x="21" y="42" width="1" height="4" fill="#046D41" />
<rect x="22" y="42" width="1" height="1" fill="#0C8050" />
<rect x="32" y="42" width="1" height="1" fill="#19A269" />
<rect x="33" y="42" width="1" height="5" fill="#046D41" />
<rect x="37" y="42" width="1" height="1" fill="#39886A" />
<rect x="38" y="42" width="1" height="14" fill="#DADCE7" />
<rect x="17" y="43" width="1" height="13" fill="#DADCE7" />
<rect x="18" y="43" width="1" height="1" fill="#7CAB9E" />
<rect x="22" y="43" width="1" height="4" fill="#046D41" />
<rect x="23" y="43" width="1" height="1" fill="#14945F" />
<rect x="31" y="43" width="1" height="1" fill="#1EAF73" />
<rect x="32" y="43" width="1" height="5" fill="#046D41" />
<rect x="36" y="43" width="1" height="1" fill="#1E7A55" />
<rect x="37" y="43" width="1" height="1" fill="#CCD5DC" />
<rect x="18" y="44" width="1" height="12" fill="#DADCE7" />
<rect x="19" y="44" width="1" height="1" fill="#54967F" />
<rect x="23" y="44" width="1" height="4" fill="#046D41" />
<rect x="24" y="44" width="1" height="1" fill="#1EAF73" />
<rect x="30" y="44" width="1" height="1" fill="#26C382" />
<rect x="31" y="44" width="1" height="1" fill="#067346" />
<rect x="35" y="44" width="1" height="1" fill="#11734B" />
<rect x="36" y="44" width="1" height="1" fill="#B1C7C7" />
<rect x="37" y="44" width="1" height="12" fill="#DADCE7" />
<rect x="19" y="45" width="1" height="1" fill="#CCD5DC" />
<rect x="20" y="45" width="1" height="1" fill="#2C8160" />
<rect x="24" y="45" width="1" height="4" fill="#046D41" />
<rect x="25" y="45" width="1" height="1" fill="#14945F" />
<rect x="26" y="45" width="1" height="1" fill="#2CD08C" />
<rect x="29" y="45" width="1" height="1" fill="#26C382" />
<rect x="30" y="45" width="1" height="1" fill="#067346" />
<rect x="31" y="45" width="1" height="4" fill="#046D41" />
<rect x="35" y="45" width="1" height="1" fill="#97B9B3" />
<rect x="36" y="45" width="1" height="11" fill="#DADCE7" />
<rect x="19" y="46" width="1" height="10" fill="#DADCE7" />
<rect x="20" y="46" width="1" height="1" fill="#CCD5DC" />
<rect x="21" y="46" width="1" height="1" fill="#11734B" />
<rect x="25" y="46" width="6" height="3" fill="#046D41" />
<rect x="34" y="46" width="1" height="1" fill="#6FA494" />
<rect x="35" y="46" width="1" height="10" fill="#DADCE7" />
<rect x="20" y="47" width="1" height="9" fill="#DADCE7" />
<rect x="21" y="47" width="1" height="1" fill="#B1C7C7" />
<rect x="22" y="47" width="1" height="1" fill="#11734B" />
<rect x="33" y="47" width="1" height="1" fill="#54967F" />
<rect x="34" y="47" width="1" height="9" fill="#DADCE7" />
<rect x="21" y="48" width="1" height="8" fill="#DADCE7" />
<rect x="22" y="48" width="1" height="1" fill="#A4C0BD" />
<rect x="23" y="48" width="1" height="1" fill="#11734B" />
<rect x="32" y="48" width="1" height="1" fill="#619D89" />
<rect x="33" y="48" width="1" height="8" fill="#DADCE7" />
<rect x="22" y="49" width="1" height="7" fill="#DADCE7" />
<rect x="23" y="49" width="1" height="1" fill="#CCD5DC" />
<rect x="24" y="49" width="1" height="1" fill="#54967F" />
<rect x="25" y="49" width="1" height="1" fill="#1E7A55" />
<rect x="26" y="49" width="4" height="1" fill="#046D41" />
<rect x="30" y="49" width="1" height="1" fill="#468F74" />
<rect x="31" y="49" width="1" height="1" fill="#A4C0BD" />
<rect x="32" y="49" width="1" height="7" fill="#DADCE7" />
<rect x="23" y="50" width="3" height="6" fill="#DADCE7" />
<rect x="26" y="50" width="1" height="1" fill="#CCD5DC" />
<rect x="27" y="50" width="2" height="1" fill="#A4C0BD" />
<rect x="29" y="50" width="3" height="6" fill="#DADCE7" />
<rect x="26" y="51" width="3" height="5" fill="#DADCE7" />
<rect x="8" y="53" width="1" height="1" fill="#DEE0EA" />
<rect x="55" y="53" width="1" height="1" fill="#DEE0EA" />
<rect x="0" y="54" width="1" height="1" fill="#9696A2" opacity="0.874510" />
<rect x="4" y="54" width="1" height="1" fill="#E4E4E8" />
<rect x="8" y="54" width="1" height="1" fill="#ECEDF3" />
<rect x="55" y="54" width="1" height="1" fill="#ECEDF3" />
<rect x="59" y="54" width="1" height="1" fill="#E4E4E8" />
<rect x="63" y="54" width="1" height="1" fill="#9696A2" opacity="0.874510" />
<rect x="0" y="55" width="1" height="1" fill="#9696A3" opacity="0.749020" />
<rect x="4" y="55" width="1" height="1" fill="#D1D1D6" />
<rect x="8" y="55" width="1" height="4" fill="#FFFFFF" />
<rect x="9" y="55" width="1" height="1" fill="#EAEBF1" />
<rect x="10" y="55" width="2" height="1" fill="#DADCE7" />
<rect x="52" y="55" width="2" height="1" fill="#DADCE7" />
<rect x="54" y="55" width="1" height="1" fill="#EAEBF1" />
<rect x="55" y="55" width="1" height="4" fill="#FFFFFF" />
<rect x="59" y="55" width="1" height="1" fill="#D1D1D6" />
<rect x="63" y="55" width="1" height="1" fill="#9696A3" opacity="0.749020" />
<rect x="0" y="56" width="1" height="1" fill="#9797A3" opacity="0.498039" />
<rect x="4" y="56" width="1" height="1" fill="#A3A3AE" />
<rect x="9" y="56" width="46" height="4" fill="#FFFFFF" />
<rect x="59" y="56" width="1" height="1" fill="#A3A3AE" />
<rect x="63" y="56" width="1" height="1" fill="#9797A3" opacity="0.498039" />
<rect x="0" y="57" width="1" height="1" fill="#9898A3" opacity="0.184314" />
<rect x="4" y="57" width="1" height="5" fill="#9696A3" />
<rect x="5" y="57" width="1" height="1" fill="#D1D1D6" />
<rect x="58" y="57" width="1" height="1" fill="#D1D1D6" />
<rect x="59" y="57" width="1" height="5" fill="#9696A3" />
<rect x="63" y="57" width="1" height="1" fill="#9898A3" opacity="0.184314" />
<rect x="1" y="58" width="1" height="1" fill="#9696A3" opacity="0.749020" />
<rect x="5" y="58" width="1" height="4" fill="#9696A3" />
<rect x="6" y="58" width="1" height="1" fill="#D7D7DC" />
<rect x="57" y="58" width="1" height="1" fill="#D7D7DC" />
<rect x="58" y="58" width="1" height="4" fill="#9696A3" />
<rect x="62" y="58" width="1" height="1" fill="#9696A3" opacity="0.749020" />
<rect x="1" y="59" width="1" height="1" fill="#9696A2" opacity="0.247059" />
<rect x="6" y="59" width="1" height="4" fill="#9696A3" />
<rect x="7" y="59" width="1" height="1" fill="#B0B0BA" />
<rect x="8" y="59" width="1" height="1" fill="#DEDEE2" />
<rect x="55" y="59" width="1" height="1" fill="#DEDEE2" />
<rect x="56" y="59" width="1" height="1" fill="#B0B0BA" />
<rect x="57" y="59" width="1" height="4" fill="#9696A3" />
<rect x="62" y="59" width="1" height="1" fill="#9696A2" opacity="0.247059" />
<rect x="2" y="60" width="1" height="1" fill="#9696A2" opacity="0.560784" />
<rect x="7" y="60" width="50" height="3" fill="#9696A3" />
<rect x="61" y="60" width="1" height="1" fill="#9696A2" opacity="0.560784" />
<rect x="3" y="61" width="1" height="1" fill="#9595A2" opacity="0.623529" />
<rect x="60" y="61" width="1" height="1" fill="#9595A2" opacity="0.623529" />
<rect x="4" y="62" width="1" height="1" fill="#9494A1" opacity="0.309804" />
<rect x="5" y="62" width="1" height="1" fill="#9595A2" opacity="0.937255" />
<rect x="58" y="62" width="1" height="1" fill="#9595A2" opacity="0.937255" />
<rect x="59" y="62" width="1" height="1" fill="#9494A1" opacity="0.309804" />
<rect x="6" y="63" width="1" height="1" fill="#9696A4" opacity="0.372549" />
<rect x="7" y="63" width="1" height="1" fill="#9696A3" opacity="0.686275" />
<rect x="8" y="63" width="1" height="1" fill="#9595A2" opacity="0.937255" />
<rect x="9" y="63" width="46" height="1" fill="#9696A3" />
<rect x="55" y="63" width="1" height="1" fill="#9595A2" opacity="0.937255" />
<rect x="56" y="63" width="1" height="1" fill="#9696A3" opacity="0.686275" />
<rect x="57" y="63" width="1" height="1" fill="#9696A4" opacity="0.372549" />
</svg>