<?xml version="1.0" encoding="UTF-8" ?>
<svg version="1.1" width="24" height="24" xmlns="http://www.w3.org/2000/svg" shape-rendering="crispEdges">
<rect x="6" y="4" width="12" height="1" fill="#323821" />
<rect x="5" y="5" width="2" height="1" fill="#323821" />
<rect x="7" y="5" width="4" height="2" fill="#88A043" />
<rect x="11" y="5" width="7" height="1" fill="#9FBC4D" />
<rect x="18" y="5" width="1" height="7" fill="#323821" />
<rect x="4" y="6" width="1" height="3" fill="#323821" />
<rect x="5" y="6" width="1" height="2" fill="#C43F31" />
<rect x="6" y="6" width="1" height="3" fill="#323821" />
<rect x="11" y="6" width="1" height="6" fill="#88A043" />
<rect x="12" y="6" width="2" height="1" fill="#9FBC4D" />
<rect x="14" y="6" width="3" height="1" fill="#88A043" />
<rect x="17" y="6" width="1" height="1" fill="#9FBC4D" />
<rect x="7" y="7" width="1" height="2" fill="#88A043" />
<rect x="8" y="7" width="1" height="3" fill="#FFFFFF" />
<rect x="9" y="7" width="1" height="2" fill="#323821" />
<rect x="10" y="7" width="1" height="3" fill="#FFFFFF" />
<rect x="12" y="7" width="1" height="4" fill="#9FBC4D" />
<rect x="13" y="7" width="1" height="1" fill="#323821" />
<rect x="14" y="7" width="3" height="4" fill="#9FBC4D" />
<rect x="17" y="7" width="1" height="1" fill="#323821" />
<rect x="5" y="8" width="1" height="4" fill="#323821" />
<rect x="13" y="8" width="1" height="5" fill="#9FBC4D" />
<rect x="17" y="8" width="1" height="3" fill="#9FBC4D" />
<rect x="6" y="9" width="1" height="2" fill="#C43F31" />
<rect x="7" y="9" width="1" height="4" fill="#323821" />
<rect x="9" y="9" width="1" height="1" fill="#FFFFFF" />
<rect x="8" y="10" width="3" height="2" fill="#88A043" />
<rect x="6" y="11" width="1" height="1" fill="#323821" />
<rect x="12" y="11" width="1" height="1" fill="#88A043" />
<rect x="14" y="11" width="4" height="1" fill="#323821" />
<rect x="8" y="12" width="1" height="3" fill="#323821" />
<rect x="9" y="12" width="2" height="1" fill="#88A043" />
<rect x="11" y="12" width="2" height="1" fill="#9FBC4D" />
<rect x="14" y="12" width="1" height="1" fill="#9FBC4D" />
<rect x="15" y="12" width="1" height="7" fill="#323821" />
<rect x="9" y="13" width="1" height="7" fill="#88A043" />
<rect x="10" y="13" width="1" height="3" fill="#D8B78F" />
<rect x="11" y="13" width="4" height="3" fill="#FFD7A8" />
<rect x="6" y="14" width="2" height="1" fill="#323821" />
<rect x="6" y="15" width="1" height="2" fill="#323821" />
<rect x="7" y="15" width="2" height="1" fill="#9FBC4D" />
<rect x="7" y="16" width="1" height="2" fill="#323821" />
<rect x="8" y="16" width="1" height="1" fill="#88A043" />
<rect x="10" y="16" width="1" height="1" fill="#88A043" />
<rect x="11" y="16" width="1" height="2" fill="#9FBC4D" />
<rect x="12" y="16" width="2" height="1" fill="#D8B78F" />
<rect x="14" y="16" width="1" height="3" fill="#9FBC4D" />
<rect x="8" y="17" width="1" height="4" fill="#323821" />
<rect x="10" y="17" width="1" height="2" fill="#9FBC4D" />
<rect x="12" y="17" width="2" height="1" fill="#9FBC4D" />
<rect x="11" y="18" width="2" height="1" fill="#323821" />
<rect x="13" y="18" width="1" height="2" fill="#88A043" />
<rect x="10" y="19" width="1" height="1" fill="#323821" />
<rect x="12" y="19" width="1" height="2" fill="#323821" />
<rect x="14" y="19" width="1" height="1" fill="#323821" />
<rect x="9" y="20" width="1" height="1" fill="#323821" />
<rect x="13" y="20" width="1" height="1" fill="#323821" />
</svg>