<svg width="18" height="14" viewBox="0 0 18 14" fill="none" xmlns="http://www.w3.org/2000/svg">
<g clip-path="url(#clip0_1660_664)">
<rect width="18" height="14" fill="#2E42A5"/>
<path d="M-2.00427 12.9999L1.95668 14.7371L18.0899 1.88878L20.1792 -0.692749L15.9435 -1.27337L9.36317 4.26332L4.06667 7.99375L-2.00427 12.9999Z" fill="#F7FCFF"/>
<path d="M-1.46204 14.217L0.555885 15.2251L19.4289 -0.932617H16.5955L-1.46204 14.217Z" fill="#F50100"/>
<path d="M20.0043 12.9999L16.0433 14.7371L-0.0898743 1.88878L-2.17919 -0.692749L2.05648 -1.27337L8.63683 4.26332L13.9333 7.99375L20.0043 12.9999Z" fill="#F7FCFF"/>
<path d="M19.8691 13.8732L17.8512 14.8813L9.81489 7.96339L7.43229 7.19046L-2.3802 -0.684069H0.453194L10.2602 7.00356L12.8651 7.93038L19.8691 13.8732Z" fill="#F50100"/>
<path fill-rule="evenodd" clip-rule="evenodd" d="M9.98451 0H7.98451V6H0V8H7.98451V14H9.98451V8H18V6H9.98451V0Z" fill="#F50100"/>
<path fill-rule="evenodd" clip-rule="evenodd" d="M6.48451 0H11.4845V4.5H18V9.5H11.4845L11.5 14H6.5L6.48451 9.5H0V4.5H6.48451V0ZM7.98451 6H0V8H7.98451V14H9.98451V8H18V6H9.98451V0H7.98451V6Z" fill="#F7FCFF"/>
</g>
<defs>
<clipPath id="clip0_1660_664">
<rect width="18" height="14" fill="white"/>
</clipPath>
</defs>
</svg>
