<?xml version="1.0" encoding="UTF-8" ?>
<svg version="1.1" width="64" height="64" xmlns="http://www.w3.org/2000/svg" shape-rendering="crispEdges">
<rect x="6" y="0" width="1" height="1" fill="#9494A5" opacity="0.121569" />
<rect x="7" y="0" width="1" height="1" fill="#9595A3" opacity="0.435294" />
<rect x="8" y="0" width="1" height="1" fill="#9595A2" opacity="0.623529" />
<rect x="9" y="0" width="3" height="1" fill="#9696A3" opacity="0.749020" />
<rect x="12" y="0" width="40" height="4" fill="#9696A3" />
<rect x="52" y="0" width="3" height="1" fill="#9696A3" opacity="0.749020" />
<rect x="55" y="0" width="1" height="1" fill="#9595A2" opacity="0.623529" />
<rect x="56" y="0" width="1" height="1" fill="#9595A3" opacity="0.435294" />
<rect x="57" y="0" width="1" height="1" fill="#9494A5" opacity="0.121569" />
<rect x="4" y="1" width="1" height="1" fill="#9696A2" opacity="0.247059" />
<rect x="5" y="1" width="1" height="1" fill="#9696A3" opacity="0.749020" />
<rect x="6" y="1" width="6" height="3" fill="#9696A3" />
<rect x="52" y="1" width="6" height="3" fill="#9696A3" />
<rect x="58" y="1" width="1" height="1" fill="#9696A3" opacity="0.749020" />
<rect x="59" y="1" width="1" height="1" fill="#9696A2" opacity="0.247059" />
<rect x="3" y="2" width="1" height="1" fill="#9696A2" opacity="0.560784" />
<rect x="4" y="2" width="2" height="4" fill="#9696A3" />
<rect x="58" y="2" width="2" height="4" fill="#9696A3" />
<rect x="60" y="2" width="1" height="1" fill="#9696A2" opacity="0.560784" />
<rect x="2" y="3" width="1" height="1" fill="#9595A2" opacity="0.623529" />
<rect x="3" y="3" width="1" height="58" fill="#9696A3" />
<rect x="60" y="3" width="1" height="58" fill="#9696A3" />
<rect x="61" y="3" width="1" height="1" fill="#9595A2" opacity="0.623529" />
<rect x="1" y="4" width="1" height="1" fill="#9494A1" opacity="0.309804" />
<rect x="2" y="4" width="1" height="56" fill="#9696A3" />
<rect x="6" y="4" width="1" height="1" fill="#9696A3" />
<rect x="7" y="4" width="1" height="1" fill="#A3A3AE" />
<rect x="8" y="4" width="1" height="1" fill="#C3C3CB" />
<rect x="9" y="4" width="1" height="1" fill="#DEDEE2" />
<rect x="10" y="4" width="2" height="1" fill="#E4E4E8" />
<rect x="12" y="4" width="40" height="4" fill="#FFFFFF" />
<rect x="52" y="4" width="2" height="1" fill="#E4E4E8" />
<rect x="54" y="4" width="1" height="1" fill="#DEDEE2" />
<rect x="55" y="4" width="1" height="1" fill="#C3C3CB" />
<rect x="56" y="4" width="1" height="1" fill="#A3A3AE" />
<rect x="57" y="4" width="1" height="1" fill="#9696A3" />
<rect x="61" y="4" width="1" height="56" fill="#9696A3" />
<rect x="62" y="4" width="1" height="1" fill="#9494A1" opacity="0.309804" />
<rect x="1" y="5" width="1" height="1" fill="#9696A2" opacity="0.874510" />
<rect x="6" y="5" width="1" height="1" fill="#CACAD1" />
<rect x="7" y="5" width="5" height="3" fill="#FFFFFF" />
<rect x="52" y="5" width="5" height="3" fill="#FFFFFF" />
<rect x="57" y="5" width="1" height="1" fill="#CACAD1" />
<rect x="62" y="5" width="1" height="1" fill="#9696A2" opacity="0.874510" />
<rect x="0" y="6" width="1" height="1" fill="#9494A1" opacity="0.309804" />
<rect x="1" y="6" width="1" height="52" fill="#9696A3" />
<rect x="4" y="6" width="1" height="1" fill="#9696A3" />
<rect x="5" y="6" width="1" height="1" fill="#D1D1D6" />
<rect x="6" y="6" width="1" height="52" fill="#FFFFFF" />
<rect x="57" y="6" width="1" height="52" fill="#FFFFFF" />
<rect x="58" y="6" width="1" height="1" fill="#D1D1D6" />
<rect x="59" y="6" width="1" height="1" fill="#9696A3" />
<rect x="62" y="6" width="1" height="52" fill="#9696A3" />
<rect x="63" y="6" width="1" height="1" fill="#9494A1" opacity="0.309804" />
<rect x="0" y="7" width="1" height="1" fill="#9595A2" opacity="0.623529" />
<rect x="4" y="7" width="1" height="1" fill="#B0B0BA" />
<rect x="5" y="7" width="1" height="50" fill="#FFFFFF" />
<rect x="58" y="7" width="1" height="50" fill="#FFFFFF" />
<rect x="59" y="7" width="1" height="1" fill="#B0B0BA" />
<rect x="63" y="7" width="1" height="1" fill="#9595A2" opacity="0.623529" />
<rect x="0" y="8" width="1" height="1" fill="#9595A3" opacity="0.811765" />
<rect x="4" y="8" width="1" height="1" fill="#D7D7DC" />
<rect x="7" y="8" width="2" height="1" fill="#FFFFFF" />
<rect x="9" y="8" width="1" height="1" fill="#F1F1F6" />
<rect x="10" y="8" width="2" height="1" fill="#E3E4ED" />
<rect x="12" y="8" width="40" height="6" fill="#DADCE7" />
<rect x="52" y="8" width="2" height="1" fill="#E3E4ED" />
<rect x="54" y="8" width="1" height="1" fill="#F1F1F6" />
<rect x="55" y="8" width="2" height="1" fill="#FFFFFF" />
<rect x="59" y="8" width="1" height="1" fill="#D7D7DC" />
<rect x="63" y="8" width="1" height="1" fill="#9595A3" opacity="0.811765" />
<rect x="0" y="9" width="1" height="45" fill="#9696A3" />
<rect x="4" y="9" width="1" height="1" fill="#F1F1F3" />
<rect x="7" y="9" width="1" height="50" fill="#FFFFFF" />
<rect x="8" y="9" width="1" height="1" fill="#ECEDF3" />
<rect x="9" y="9" width="3" height="46" fill="#DADCE7" />
<rect x="52" y="9" width="3" height="46" fill="#DADCE7" />
<rect x="55" y="9" width="1" height="1" fill="#ECEDF3" />
<rect x="56" y="9" width="1" height="50" fill="#FFFFFF" />
<rect x="59" y="9" width="1" height="1" fill="#F1F1F3" />
<rect x="63" y="9" width="1" height="45" fill="#9696A3" />
<rect x="4" y="10" width="1" height="44" fill="#FFFFFF" />
<rect x="8" y="10" width="1" height="1" fill="#DCDEE8" />
<rect x="55" y="10" width="1" height="1" fill="#DCDEE8" />
<rect x="59" y="10" width="1" height="44" fill="#FFFFFF" />
<rect x="8" y="11" width="1" height="42" fill="#DADCE7" />
<rect x="55" y="11" width="1" height="42" fill="#DADCE7" />
<rect x="12" y="14" width="6" height="1" fill="#DADCE7" />
<rect x="18" y="14" width="1" height="1" fill="#CAB5C2" />
<rect x="19" y="14" width="1" height="1" fill="#A65C6C" />
<rect x="20" y="14" width="4" height="1" fill="#9B4354" />
<rect x="24" y="14" width="1" height="1" fill="#A65C6C" />
<rect x="25" y="14" width="1" height="1" fill="#CAB5C2" />
<rect x="26" y="14" width="12" height="1" fill="#DADCE7" />
<rect x="38" y="14" width="1" height="1" fill="#CAB5C2" />
<rect x="39" y="14" width="1" height="1" fill="#A65C6C" />
<rect x="40" y="14" width="4" height="1" fill="#9B4354" />
<rect x="44" y="14" width="1" height="1" fill="#A65C6C" />
<rect x="45" y="14" width="1" height="1" fill="#CAB5C2" />
<rect x="46" y="14" width="6" height="1" fill="#DADCE7" />
<rect x="12" y="15" width="4" height="2" fill="#DADCE7" />
<rect x="16" y="15" width="1" height="1" fill="#D4CFDA" />
<rect x="17" y="15" width="1" height="1" fill="#A04F60" />
<rect x="18" y="15" width="8" height="3" fill="#871023" />
<rect x="26" y="15" width="1" height="1" fill="#9B4354" />
<rect x="27" y="15" width="1" height="1" fill="#CAB5C2" />
<rect x="28" y="15" width="8" height="1" fill="#DADCE7" />
<rect x="36" y="15" width="1" height="1" fill="#D4CFDA" />
<rect x="37" y="15" width="1" height="1" fill="#A04F60" />
<rect x="38" y="15" width="8" height="3" fill="#871023" />
<rect x="46" y="15" width="1" height="1" fill="#9B4354" />
<rect x="47" y="15" width="1" height="1" fill="#CAB5C2" />
<rect x="48" y="15" width="4" height="2" fill="#DADCE7" />
<rect x="16" y="16" width="1" height="1" fill="#A04F60" />
<rect x="17" y="16" width="1" height="12" fill="#871023" />
<rect x="26" y="16" width="1" height="4" fill="#871023" />
<rect x="27" y="16" width="1" height="1" fill="#91293B" />
<rect x="28" y="16" width="1" height="1" fill="#D4CFDA" />
<rect x="29" y="16" width="6" height="1" fill="#DADCE7" />
<rect x="35" y="16" width="1" height="1" fill="#D4CFDA" />
<rect x="36" y="16" width="1" height="1" fill="#963647" />
<rect x="37" y="16" width="1" height="4" fill="#871023" />
<rect x="46" y="16" width="1" height="12" fill="#871023" />
<rect x="47" y="16" width="1" height="1" fill="#963647" />
<rect x="12" y="17" width="3" height="1" fill="#DADCE7" />
<rect x="15" y="17" width="1" height="1" fill="#AB6978" />
<rect x="16" y="17" width="1" height="10" fill="#871023" />
<rect x="27" y="17" width="1" height="4" fill="#871023" />
<rect x="28" y="17" width="1" height="1" fill="#963647" />
<rect x="29" y="17" width="1" height="1" fill="#D4CFDA" />
<rect x="30" y="17" width="4" height="1" fill="#DADCE7" />
<rect x="34" y="17" width="1" height="1" fill="#D4CFDA" />
<rect x="35" y="17" width="1" height="1" fill="#963647" />
<rect x="36" y="17" width="1" height="4" fill="#871023" />
<rect x="47" y="17" width="1" height="10" fill="#871023" />
<rect x="48" y="17" width="1" height="1" fill="#AB6978" />
<rect x="49" y="17" width="3" height="1" fill="#DADCE7" />
<rect x="12" y="18" width="2" height="38" fill="#DADCE7" />
<rect x="14" y="18" width="1" height="1" fill="#CAB5C2" />
<rect x="15" y="18" width="1" height="8" fill="#871023" />
<rect x="18" y="18" width="1" height="1" fill="#871023" />
<rect x="19" y="18" width="1" height="1" fill="#9D1F33" />
<rect x="20" y="18" width="1" height="1" fill="#D2435A" />
<rect x="21" y="18" width="2" height="1" fill="#E14D65" />
<rect x="23" y="18" width="1" height="1" fill="#D9485F" />
<rect x="24" y="18" width="1" height="1" fill="#A52439" />
<rect x="25" y="18" width="1" height="1" fill="#871023" />
<rect x="28" y="18" width="1" height="4" fill="#871023" />
<rect x="29" y="18" width="1" height="1" fill="#963647" />
<rect x="30" y="18" width="1" height="1" fill="#D4CFDA" />
<rect x="31" y="18" width="2" height="1" fill="#DADCE7" />
<rect x="33" y="18" width="1" height="1" fill="#D4CFDA" />
<rect x="34" y="18" width="1" height="1" fill="#963647" />
<rect x="35" y="18" width="1" height="4" fill="#871023" />
<rect x="38" y="18" width="1" height="1" fill="#871023" />
<rect x="39" y="18" width="1" height="1" fill="#9D1F33" />
<rect x="40" y="18" width="1" height="1" fill="#D2435A" />
<rect x="41" y="18" width="2" height="1" fill="#E14D65" />
<rect x="43" y="18" width="1" height="1" fill="#D9485F" />
<rect x="44" y="18" width="1" height="1" fill="#A52439" />
<rect x="45" y="18" width="1" height="1" fill="#871023" />
<rect x="48" y="18" width="1" height="8" fill="#871023" />
<rect x="49" y="18" width="1" height="1" fill="#CAB5C2" />
<rect x="50" y="18" width="2" height="38" fill="#DADCE7" />
<rect x="14" y="19" width="1" height="1" fill="#A65C6C" />
<rect x="18" y="19" width="1" height="1" fill="#8E1528" />
<rect x="19" y="19" width="1" height="1" fill="#F05770" />
<rect x="20" y="19" width="5" height="7" fill="#FF627B" />
<rect x="25" y="19" width="1" height="1" fill="#9D1F33" />
<rect x="29" y="19" width="1" height="4" fill="#871023" />
<rect x="30" y="19" width="1" height="1" fill="#963647" />
<rect x="31" y="19" width="2" height="1" fill="#D4CFDA" />
<rect x="33" y="19" width="1" height="1" fill="#963647" />
<rect x="34" y="19" width="1" height="4" fill="#871023" />
<rect x="38" y="19" width="1" height="1" fill="#8E1528" />
<rect x="39" y="19" width="1" height="1" fill="#F05770" />
<rect x="40" y="19" width="5" height="6" fill="#FF627B" />
<rect x="45" y="19" width="1" height="1" fill="#9D1F33" />
<rect x="49" y="19" width="1" height="1" fill="#A65C6C" />
<rect x="14" y="20" width="1" height="1" fill="#91293B" />
<rect x="18" y="20" width="1" height="1" fill="#D9485F" />
<rect x="19" y="20" width="1" height="5" fill="#FF627B" />
<rect x="25" y="20" width="1" height="1" fill="#F75C75" />
<rect x="26" y="20" width="1" height="1" fill="#9D1F33" />
<rect x="30" y="20" width="1" height="4" fill="#871023" />
<rect x="31" y="20" width="2" height="1" fill="#963647" />
<rect x="33" y="20" width="1" height="4" fill="#871023" />
<rect x="37" y="20" width="1" height="1" fill="#8E1528" />
<rect x="38" y="20" width="1" height="1" fill="#E8526A" />
<rect x="39" y="20" width="1" height="10" fill="#FF627B" />
<rect x="45" y="20" width="1" height="1" fill="#E14D65" />
<rect x="49" y="20" width="1" height="1" fill="#91293B" />
<rect x="14" y="21" width="1" height="2" fill="#871023" />
<rect x="18" y="21" width="1" height="2" fill="#FF627B" />
<rect x="25" y="21" width="1" height="10" fill="#FF627B" />
<rect x="26" y="21" width="1" height="1" fill="#F75C75" />
<rect x="27" y="21" width="1" height="1" fill="#9D1F33" />
<rect x="31" y="21" width="2" height="4" fill="#871023" />
<rect x="36" y="21" width="1" height="1" fill="#8E1528" />
<rect x="37" y="21" width="1" height="1" fill="#E8526A" />
<rect x="38" y="21" width="1" height="10" fill="#FF627B" />
<rect x="45" y="21" width="1" height="2" fill="#FF627B" />
<rect x="49" y="21" width="1" height="2" fill="#871023" />
<rect x="26" y="22" width="1" height="10" fill="#FF627B" />
<rect x="27" y="22" width="1" height="1" fill="#F75C75" />
<rect x="28" y="22" width="1" height="1" fill="#9D1F33" />
<rect x="35" y="22" width="1" height="1" fill="#961A2E" />
<rect x="36" y="22" width="1" height="1" fill="#E8526A" />
<rect x="37" y="22" width="1" height="10" fill="#FF627B" />
<rect x="14" y="23" width="1" height="1" fill="#8C1C2F" />
<rect x="18" y="23" width="1" height="1" fill="#E8526A" />
<rect x="27" y="23" width="1" height="19" fill="#FF627B" />
<rect x="28" y="23" width="1" height="1" fill="#F75C75" />
<rect x="29" y="23" width="1" height="1" fill="#9D1F33" />
<rect x="34" y="23" width="1" height="1" fill="#9D1F33" />
<rect x="35" y="23" width="1" height="1" fill="#F75C75" />
<rect x="36" y="23" width="1" height="19" fill="#FF627B" />
<rect x="45" y="23" width="1" height="1" fill="#F05770" />
<rect x="49" y="23" width="1" height="1" fill="#8C1C2F" />
<rect x="14" y="24" width="1" height="1" fill="#A04F60" />
<rect x="18" y="24" width="1" height="1" fill="#A52439" />
<rect x="28" y="24" width="1" height="17" fill="#FF627B" />
<rect x="29" y="24" width="1" height="1" fill="#F75C75" />
<rect x="30" y="24" width="1" height="1" fill="#9D1F33" />
<rect x="33" y="24" width="1" height="1" fill="#9D1F33" />
<rect x="34" y="24" width="1" height="1" fill="#F75C75" />
<rect x="35" y="24" width="1" height="17" fill="#FF627B" />
<rect x="45" y="24" width="1" height="1" fill="#BB3349" />
<rect x="49" y="24" width="1" height="1" fill="#A04F60" />
<rect x="14" y="25" width="1" height="1" fill="#C09CA9" />
<rect x="18" y="25" width="1" height="4" fill="#871023" />
<rect x="19" y="25" width="1" height="1" fill="#B42E44" />
<rect x="29" y="25" width="1" height="15" fill="#FF627B" />
<rect x="30" y="25" width="1" height="1" fill="#F75C75" />
<rect x="31" y="25" width="2" height="1" fill="#9D1F33" />
<rect x="33" y="25" width="1" height="1" fill="#F75C75" />
<rect x="34" y="25" width="1" height="15" fill="#FF627B" />
<rect x="40" y="25" width="4" height="1" fill="#FF627B" />
<rect x="44" y="25" width="1" height="1" fill="#D2435A" />
<rect x="45" y="25" width="1" height="4" fill="#871023" />
<rect x="49" y="25" width="1" height="1" fill="#C09CA9" />
<rect x="14" y="26" width="1" height="12" fill="#DADCE7" />
<rect x="15" y="26" width="1" height="1" fill="#963647" />
<rect x="19" y="26" width="1" height="4" fill="#871023" />
<rect x="20" y="26" width="1" height="1" fill="#B42E44" />
<rect x="21" y="26" width="4" height="1" fill="#FF627B" />
<rect x="30" y="26" width="1" height="13" fill="#FF627B" />
<rect x="31" y="26" width="2" height="1" fill="#F75C75" />
<rect x="33" y="26" width="1" height="13" fill="#FF627B" />
<rect x="40" y="26" width="3" height="1" fill="#FF627B" />
<rect x="43" y="26" width="1" height="1" fill="#D2435A" />
<rect x="44" y="26" width="1" height="4" fill="#871023" />
<rect x="48" y="26" width="1" height="1" fill="#963647" />
<rect x="49" y="26" width="1" height="12" fill="#DADCE7" />
<rect x="15" y="27" width="1" height="1" fill="#CFC2CE" />
<rect x="16" y="27" width="1" height="1" fill="#8C1C2F" />
<rect x="20" y="27" width="1" height="4" fill="#871023" />
<rect x="21" y="27" width="1" height="1" fill="#B42E44" />
<rect x="22" y="27" width="3" height="1" fill="#FF627B" />
<rect x="31" y="27" width="2" height="11" fill="#FF627B" />
<rect x="40" y="27" width="2" height="1" fill="#FF627B" />
<rect x="42" y="27" width="1" height="1" fill="#D2435A" />
<rect x="43" y="27" width="1" height="4" fill="#871023" />
<rect x="47" y="27" width="1" height="1" fill="#8C1C2F" />
<rect x="48" y="27" width="1" height="1" fill="#CFC2CE" />
<rect x="15" y="28" width="1" height="9" fill="#DADCE7" />
<rect x="16" y="28" width="1" height="1" fill="#CAB5C2" />
<rect x="17" y="28" width="1" height="1" fill="#8C1C2F" />
<rect x="21" y="28" width="1" height="8" fill="#871023" />
<rect x="22" y="28" width="1" height="1" fill="#B42E44" />
<rect x="23" y="28" width="2" height="1" fill="#FF627B" />
<rect x="40" y="28" width="1" height="1" fill="#FF627B" />
<rect x="41" y="28" width="1" height="1" fill="#CA3E54" />
<rect x="42" y="28" width="1" height="8" fill="#871023" />
<rect x="46" y="28" width="1" height="1" fill="#8C1C2F" />
<rect x="47" y="28" width="1" height="1" fill="#CAB5C2" />
<rect x="48" y="28" width="1" height="9" fill="#DADCE7" />
<rect x="16" y="29" width="1" height="6" fill="#DADCE7" />
<rect x="17" y="29" width="1" height="1" fill="#CAB5C2" />
<rect x="18" y="29" width="1" height="1" fill="#8C1C2F" />
<rect x="22" y="29" width="1" height="6" fill="#871023" />
<rect x="23" y="29" width="1" height="1" fill="#B42E44" />
<rect x="24" y="29" width="1" height="1" fill="#FF627B" />
<rect x="40" y="29" width="1" height="1" fill="#B42E44" />
<rect x="41" y="29" width="1" height="6" fill="#871023" />
<rect x="45" y="29" width="1" height="1" fill="#8C1C2F" />
<rect x="46" y="29" width="1" height="1" fill="#CAB5C2" />
<rect x="47" y="29" width="1" height="6" fill="#DADCE7" />
<rect x="17" y="30" width="1" height="4" fill="#DADCE7" />
<rect x="18" y="30" width="1" height="1" fill="#CAB5C2" />
<rect x="19" y="30" width="1" height="1" fill="#8C1C2F" />
<rect x="23" y="30" width="1" height="4" fill="#871023" />
<rect x="24" y="30" width="1" height="1" fill="#B42E44" />
<rect x="39" y="30" width="1" height="1" fill="#B42E44" />
<rect x="40" y="30" width="1" height="4" fill="#871023" />
<rect x="44" y="30" width="1" height="1" fill="#8C1C2F" />
<rect x="45" y="30" width="1" height="1" fill="#CAB5C2" />
<rect x="46" y="30" width="1" height="4" fill="#DADCE7" />
<rect x="18" y="31" width="1" height="2" fill="#DADCE7" />
<rect x="19" y="31" width="1" height="1" fill="#CAB5C2" />
<rect x="20" y="31" width="1" height="1" fill="#8C1C2F" />
<rect x="24" y="31" width="1" height="2" fill="#871023" />
<rect x="25" y="31" width="1" height="1" fill="#B42E44" />
<rect x="38" y="31" width="1" height="1" fill="#B42E44" />
<rect x="39" y="31" width="1" height="2" fill="#871023" />
<rect x="43" y="31" width="1" height="1" fill="#8C1C2F" />
<rect x="44" y="31" width="1" height="1" fill="#CAB5C2" />
<rect x="45" y="31" width="1" height="2" fill="#DADCE7" />
<rect x="19" y="32" width="1" height="1" fill="#D4CFDA" />
<rect x="20" y="32" width="1" height="1" fill="#963647" />
<rect x="25" y="32" width="1" height="1" fill="#9D1F33" />
<rect x="26" y="32" width="1" height="1" fill="#F75C75" />
<rect x="37" y="32" width="1" height="1" fill="#F75C75" />
<rect x="38" y="32" width="1" height="1" fill="#9D1F33" />
<rect x="43" y="32" width="1" height="1" fill="#963647" />
<rect x="44" y="32" width="1" height="1" fill="#D4CFDA" />
<rect x="18" y="33" width="1" height="1" fill="#D4CFDA" />
<rect x="19" y="33" width="1" height="1" fill="#963647" />
<rect x="20" y="33" width="1" height="4" fill="#871023" />
<rect x="24" y="33" width="1" height="1" fill="#9D1F33" />
<rect x="25" y="33" width="1" height="1" fill="#F75C75" />
<rect x="26" y="33" width="1" height="10" fill="#FF627B" />
<rect x="37" y="33" width="1" height="10" fill="#FF627B" />
<rect x="38" y="33" width="1" height="1" fill="#F75C75" />
<rect x="39" y="33" width="1" height="1" fill="#9D1F33" />
<rect x="43" y="33" width="1" height="4" fill="#871023" />
<rect x="44" y="33" width="1" height="1" fill="#963647" />
<rect x="45" y="33" width="1" height="1" fill="#D4CFDA" />
<rect x="17" y="34" width="1" height="1" fill="#D4CFDA" />
<rect x="18" y="34" width="1" height="1" fill="#963647" />
<rect x="19" y="34" width="1" height="4" fill="#871023" />
<rect x="23" y="34" width="1" height="1" fill="#9D1F33" />
<rect x="24" y="34" width="1" height="1" fill="#F75C75" />
<rect x="25" y="34" width="1" height="10" fill="#FF627B" />
<rect x="38" y="34" width="1" height="10" fill="#FF627B" />
<rect x="39" y="34" width="1" height="1" fill="#F75C75" />
<rect x="40" y="34" width="1" height="1" fill="#9D1F33" />
<rect x="44" y="34" width="1" height="4" fill="#871023" />
<rect x="45" y="34" width="1" height="1" fill="#963647" />
<rect x="46" y="34" width="1" height="1" fill="#D4CFDA" />
<rect x="16" y="35" width="1" height="1" fill="#D4CFDA" />
<rect x="17" y="35" width="1" height="1" fill="#963647" />
<rect x="18" y="35" width="1" height="4" fill="#871023" />
<rect x="22" y="35" width="1" height="1" fill="#961A2E" />
<rect x="23" y="35" width="1" height="1" fill="#F75C75" />
<rect x="24" y="35" width="1" height="10" fill="#FF627B" />
<rect x="39" y="35" width="1" height="10" fill="#FF627B" />
<rect x="40" y="35" width="1" height="1" fill="#F75C75" />
<rect x="41" y="35" width="1" height="1" fill="#9D1F33" />
<rect x="45" y="35" width="1" height="4" fill="#871023" />
<rect x="46" y="35" width="1" height="1" fill="#963647" />
<rect x="47" y="35" width="1" height="1" fill="#D4CFDA" />
<rect x="16" y="36" width="1" height="1" fill="#9B4354" />
<rect x="17" y="36" width="1" height="12" fill="#871023" />
<rect x="21" y="36" width="1" height="1" fill="#8E1528" />
<rect x="22" y="36" width="1" height="1" fill="#E8526A" />
<rect x="23" y="36" width="1" height="9" fill="#FF627B" />
<rect x="40" y="36" width="1" height="9" fill="#FF627B" />
<rect x="41" y="36" width="1" height="1" fill="#F75C75" />
<rect x="42" y="36" width="1" height="1" fill="#9D1F33" />
<rect x="46" y="36" width="1" height="12" fill="#871023" />
<rect x="47" y="36" width="1" height="1" fill="#9B4354" />
<rect x="15" y="37" width="1" height="1" fill="#AB6978" />
<rect x="16" y="37" width="1" height="10" fill="#871023" />
<rect x="20" y="37" width="1" height="1" fill="#8E1528" />
<rect x="21" y="37" width="1" height="1" fill="#E8526A" />
<rect x="22" y="37" width="1" height="9" fill="#FF627B" />
<rect x="41" y="37" width="1" height="9" fill="#FF627B" />
<rect x="42" y="37" width="1" height="1" fill="#F75C75" />
<rect x="43" y="37" width="1" height="1" fill="#9D1F33" />
<rect x="47" y="37" width="1" height="10" fill="#871023" />
<rect x="48" y="37" width="1" height="1" fill="#AB6978" />
<rect x="14" y="38" width="1" height="1" fill="#CAB5C2" />
<rect x="15" y="38" width="1" height="8" fill="#871023" />
<rect x="19" y="38" width="1" height="1" fill="#8E1528" />
<rect x="20" y="38" width="1" height="1" fill="#E8526A" />
<rect x="21" y="38" width="1" height="8" fill="#FF627B" />
<rect x="31" y="38" width="2" height="1" fill="#B42E44" />
<rect x="42" y="38" width="1" height="8" fill="#FF627B" />
<rect x="43" y="38" width="1" height="1" fill="#F75C75" />
<rect x="44" y="38" width="1" height="1" fill="#9D1F33" />
<rect x="48" y="38" width="1" height="8" fill="#871023" />
<rect x="49" y="38" width="1" height="1" fill="#CAB5C2" />
<rect x="14" y="39" width="1" height="1" fill="#A65C6C" />
<rect x="18" y="39" width="1" height="1" fill="#8E1528" />
<rect x="19" y="39" width="1" height="1" fill="#E8526A" />
<rect x="20" y="39" width="1" height="6" fill="#FF627B" />
<rect x="30" y="39" width="1" height="1" fill="#B42E44" />
<rect x="31" y="39" width="2" height="4" fill="#871023" />
<rect x="33" y="39" width="1" height="1" fill="#B42E44" />
<rect x="43" y="39" width="1" height="6" fill="#FF627B" />
<rect x="44" y="39" width="1" height="1" fill="#F75C75" />
<rect x="45" y="39" width="1" height="1" fill="#9D1F33" />
<rect x="49" y="39" width="1" height="1" fill="#A65C6C" />
<rect x="14" y="40" width="1" height="1" fill="#91293B" />
<rect x="18" y="40" width="1" height="1" fill="#D9485F" />
<rect x="19" y="40" width="1" height="5" fill="#FF627B" />
<rect x="29" y="40" width="1" height="1" fill="#B42E44" />
<rect x="30" y="40" width="1" height="4" fill="#871023" />
<rect x="33" y="40" width="1" height="4" fill="#871023" />
<rect x="34" y="40" width="1" height="1" fill="#B42E44" />
<rect x="44" y="40" width="1" height="5" fill="#FF627B" />
<rect x="45" y="40" width="1" height="1" fill="#E14D65" />
<rect x="49" y="40" width="1" height="1" fill="#91293B" />
<rect x="14" y="41" width="1" height="2" fill="#871023" />
<rect x="18" y="41" width="1" height="2" fill="#FF627B" />
<rect x="28" y="41" width="1" height="1" fill="#C3394F" />
<rect x="29" y="41" width="1" height="4" fill="#871023" />
<rect x="34" y="41" width="1" height="4" fill="#871023" />
<rect x="35" y="41" width="1" height="1" fill="#B42E44" />
<rect x="45" y="41" width="1" height="2" fill="#FF627B" />
<rect x="49" y="41" width="1" height="2" fill="#871023" />
<rect x="27" y="42" width="1" height="1" fill="#D2435A" />
<rect x="28" y="42" width="1" height="4" fill="#871023" />
<rect x="35" y="42" width="1" height="4" fill="#871023" />
<rect x="36" y="42" width="1" height="1" fill="#B42E44" />
<rect x="14" y="43" width="1" height="1" fill="#8C1C2F" />
<rect x="18" y="43" width="1" height="1" fill="#E8526A" />
<rect x="26" y="43" width="1" height="1" fill="#D2435A" />
<rect x="27" y="43" width="1" height="4" fill="#871023" />
<rect x="31" y="43" width="2" height="1" fill="#8C1C2F" />
<rect x="36" y="43" width="1" height="4" fill="#871023" />
<rect x="37" y="43" width="1" height="1" fill="#B42E44" />
<rect x="45" y="43" width="1" height="1" fill="#F05770" />
<rect x="49" y="43" width="1" height="1" fill="#8C1C2F" />
<rect x="14" y="44" width="1" height="1" fill="#A04F60" />
<rect x="18" y="44" width="1" height="1" fill="#A52439" />
<rect x="25" y="44" width="1" height="1" fill="#D2435A" />
<rect x="26" y="44" width="1" height="4" fill="#871023" />
<rect x="30" y="44" width="1" height="1" fill="#8C1C2F" />
<rect x="31" y="44" width="2" height="1" fill="#CAB5C2" />
<rect x="33" y="44" width="1" height="1" fill="#8C1C2F" />
<rect x="37" y="44" width="1" height="4" fill="#871023" />
<rect x="38" y="44" width="1" height="1" fill="#B42E44" />
<rect x="45" y="44" width="1" height="1" fill="#BB3349" />
<rect x="49" y="44" width="1" height="1" fill="#A04F60" />
<rect x="14" y="45" width="1" height="1" fill="#C09CA9" />
<rect x="18" y="45" width="1" height="4" fill="#871023" />
<rect x="19" y="45" width="1" height="1" fill="#AC293E" />
<rect x="20" y="45" width="1" height="1" fill="#F05770" />
<rect x="23" y="45" width="1" height="1" fill="#F75C75" />
<rect x="24" y="45" width="1" height="1" fill="#BB3349" />
<rect x="25" y="45" width="1" height="4" fill="#871023" />
<rect x="29" y="45" width="1" height="1" fill="#8C1C2F" />
<rect x="30" y="45" width="1" height="1" fill="#CAB5C2" />
<rect x="31" y="45" width="2" height="11" fill="#DADCE7" />
<rect x="33" y="45" width="1" height="1" fill="#CAB5C2" />
<rect x="34" y="45" width="1" height="1" fill="#8C1C2F" />
<rect x="38" y="45" width="1" height="4" fill="#871023" />
<rect x="39" y="45" width="1" height="1" fill="#AC293E" />
<rect x="40" y="45" width="1" height="1" fill="#F05770" />
<rect x="43" y="45" width="1" height="1" fill="#F75C75" />
<rect x="44" y="45" width="1" height="1" fill="#BB3349" />
<rect x="45" y="45" width="1" height="4" fill="#871023" />
<rect x="49" y="45" width="1" height="1" fill="#C09CA9" />
<rect x="14" y="46" width="1" height="10" fill="#DADCE7" />
<rect x="15" y="46" width="1" height="1" fill="#963647" />
<rect x="19" y="46" width="6" height="3" fill="#871023" />
<rect x="28" y="46" width="1" height="1" fill="#8C1C2F" />
<rect x="29" y="46" width="1" height="1" fill="#CAB5C2" />
<rect x="30" y="46" width="1" height="10" fill="#DADCE7" />
<rect x="33" y="46" width="1" height="10" fill="#DADCE7" />
<rect x="34" y="46" width="1" height="1" fill="#CAB5C2" />
<rect x="35" y="46" width="1" height="1" fill="#8C1C2F" />
<rect x="39" y="46" width="6" height="3" fill="#871023" />
<rect x="48" y="46" width="1" height="1" fill="#963647" />
<rect x="49" y="46" width="1" height="10" fill="#DADCE7" />
<rect x="15" y="47" width="1" height="1" fill="#CFC2CE" />
<rect x="16" y="47" width="1" height="1" fill="#91293B" />
<rect x="27" y="47" width="1" height="1" fill="#8C1C2F" />
<rect x="28" y="47" width="1" height="1" fill="#CAB5C2" />
<rect x="29" y="47" width="1" height="9" fill="#DADCE7" />
<rect x="34" y="47" width="1" height="9" fill="#DADCE7" />
<rect x="35" y="47" width="1" height="1" fill="#CAB5C2" />
<rect x="36" y="47" width="1" height="1" fill="#91293B" />
<rect x="47" y="47" width="1" height="1" fill="#8C1C2F" />
<rect x="48" y="47" width="1" height="1" fill="#CFC2CE" />
<rect x="15" y="48" width="1" height="8" fill="#DADCE7" />
<rect x="16" y="48" width="1" height="1" fill="#D4CFDA" />
<rect x="17" y="48" width="1" height="1" fill="#A65C6C" />
<rect x="26" y="48" width="1" height="1" fill="#A04F60" />
<rect x="27" y="48" width="1" height="1" fill="#CFC2CE" />
<rect x="28" y="48" width="1" height="8" fill="#DADCE7" />
<rect x="35" y="48" width="1" height="8" fill="#DADCE7" />
<rect x="36" y="48" width="1" height="1" fill="#D4CFDA" />
<rect x="37" y="48" width="1" height="1" fill="#A65C6C" />
<rect x="46" y="48" width="1" height="1" fill="#A04F60" />
<rect x="47" y="48" width="1" height="1" fill="#CFC2CE" />
<rect x="48" y="48" width="1" height="8" fill="#DADCE7" />
<rect x="16" y="49" width="2" height="7" fill="#DADCE7" />
<rect x="18" y="49" width="1" height="1" fill="#C09CA9" />
<rect x="19" y="49" width="1" height="1" fill="#9B4354" />
<rect x="20" y="49" width="4" height="1" fill="#871023" />
<rect x="24" y="49" width="1" height="1" fill="#9B4354" />
<rect x="25" y="49" width="1" height="1" fill="#BA8F9D" />
<rect x="26" y="49" width="2" height="7" fill="#DADCE7" />
<rect x="36" y="49" width="2" height="7" fill="#DADCE7" />
<rect x="38" y="49" width="1" height="1" fill="#C09CA9" />
<rect x="39" y="49" width="1" height="1" fill="#9B4354" />
<rect x="40" y="49" width="4" height="1" fill="#871023" />
<rect x="44" y="49" width="1" height="1" fill="#9B4354" />
<rect x="45" y="49" width="1" height="1" fill="#BA8F9D" />
<rect x="46" y="49" width="2" height="7" fill="#DADCE7" />
<rect x="18" y="50" width="8" height="6" fill="#DADCE7" />
<rect x="38" y="50" width="8" height="6" fill="#DADCE7" />
<rect x="8" y="53" width="1" height="1" fill="#DEE0EA" />
<rect x="55" y="53" width="1" height="1" fill="#DEE0EA" />
<rect x="0" y="54" width="1" height="1" fill="#9696A2" opacity="0.874510" />
<rect x="4" y="54" width="1" height="1" fill="#E4E4E8" />
<rect x="8" y="54" width="1" height="1" fill="#ECEDF3" />
<rect x="55" y="54" width="1" height="1" fill="#ECEDF3" />
<rect x="59" y="54" width="1" height="1" fill="#E4E4E8" />
<rect x="63" y="54" width="1" height="1" fill="#9696A2" opacity="0.874510" />
<rect x="0" y="55" width="1" height="1" fill="#9696A3" opacity="0.749020" />
<rect x="4" y="55" width="1" height="1" fill="#D1D1D6" />
<rect x="8" y="55" width="1" height="4" fill="#FFFFFF" />
<rect x="9" y="55" width="1" height="1" fill="#EAEBF1" />
<rect x="10" y="55" width="2" height="1" fill="#DADCE7" />
<rect x="52" y="55" width="2" height="1" fill="#DADCE7" />
<rect x="54" y="55" width="1" height="1" fill="#EAEBF1" />
<rect x="55" y="55" width="1" height="4" fill="#FFFFFF" />
<rect x="59" y="55" width="1" height="1" fill="#D1D1D6" />
<rect x="63" y="55" width="1" height="1" fill="#9696A3" opacity="0.749020" />
<rect x="0" y="56" width="1" height="1" fill="#9797A3" opacity="0.498039" />
<rect x="4" y="56" width="1" height="1" fill="#A3A3AE" />
<rect x="9" y="56" width="46" height="4" fill="#FFFFFF" />
<rect x="59" y="56" width="1" height="1" fill="#A3A3AE" />
<rect x="63" y="56" width="1" height="1" fill="#9797A3" opacity="0.498039" />
<rect x="0" y="57" width="1" height="1" fill="#9898A3" opacity="0.184314" />
<rect x="4" y="57" width="1" height="5" fill="#9696A3" />
<rect x="5" y="57" width="1" height="1" fill="#D1D1D6" />
<rect x="58" y="57" width="1" height="1" fill="#D1D1D6" />
<rect x="59" y="57" width="1" height="5" fill="#9696A3" />
<rect x="63" y="57" width="1" height="1" fill="#9898A3" opacity="0.184314" />
<rect x="1" y="58" width="1" height="1" fill="#9696A3" opacity="0.749020" />
<rect x="5" y="58" width="1" height="4" fill="#9696A3" />
<rect x="6" y="58" width="1" height="1" fill="#D7D7DC" />
<rect x="57" y="58" width="1" height="1" fill="#D7D7DC" />
<rect x="58" y="58" width="1" height="4" fill="#9696A3" />
<rect x="62" y="58" width="1" height="1" fill="#9696A3" opacity="0.749020" />
<rect x="1" y="59" width="1" height="1" fill="#9696A2" opacity="0.247059" />
<rect x="6" y="59" width="1" height="4" fill="#9696A3" />
<rect x="7" y="59" width="1" height="1" fill="#B0B0BA" />
<rect x="8" y="59" width="1" height="1" fill="#DEDEE2" />
<rect x="55" y="59" width="1" height="1" fill="#DEDEE2" />
<rect x="56" y="59" width="1" height="1" fill="#B0B0BA" />
<rect x="57" y="59" width="1" height="4" fill="#9696A3" />
<rect x="62" y="59" width="1" height="1" fill="#9696A2" opacity="0.247059" />
<rect x="2" y="60" width="1" height="1" fill="#9696A2" opacity="0.560784" />
<rect x="7" y="60" width="50" height="3" fill="#9696A3" />
<rect x="61" y="60" width="1" height="1" fill="#9696A2" opacity="0.560784" />
<rect x="3" y="61" width="1" height="1" fill="#9595A2" opacity="0.623529" />
<rect x="60" y="61" width="1" height="1" fill="#9595A2" opacity="0.623529" />
<rect x="4" y="62" width="1" height="1" fill="#9494A1" opacity="0.309804" />
<rect x="5" y="62" width="1" height="1" fill="#9595A2" opacity="0.937255" />
<rect x="58" y="62" width="1" height="1" fill="#9595A2" opacity="0.937255" />
<rect x="59" y="62" width="1" height="1" fill="#9494A1" opacity="0.309804" />
<rect x="6" y="63" width="1" height="1" fill="#9696A4" opacity="0.372549" />
<rect x="7" y="63" width="1" height="1" fill="#9696A3" opacity="0.686275" />
<rect x="8" y="63" width="1" height="1" fill="#9595A2" opacity="0.937255" />
<rect x="9" y="63" width="46" height="1" fill="#9696A3" />
<rect x="55" y="63" width="1" height="1" fill="#9595A2" opacity="0.937255" />
<rect x="56" y="63" width="1" height="1" fill="#9696A3" opacity="0.686275" />
<rect x="57" y="63" width="1" height="1" fill="#9696A4" opacity="0.372549" />
</svg>