<?xml version="1.0" encoding="UTF-8" ?>
<svg version="1.1" width="18" height="18" xmlns="http://www.w3.org/2000/svg" shape-rendering="crispEdges">
<rect x="1" y="0" width="1" height="1" fill="#881021" opacity="0.184314" />
<rect x="2" y="0" width="1" height="1" fill="#871022" opacity="0.623529" />
<rect x="3" y="0" width="2" height="1" fill="#871023" opacity="0.749020" />
<rect x="5" y="0" width="1" height="1" fill="#871022" opacity="0.623529" />
<rect x="6" y="0" width="1" height="1" fill="#881021" opacity="0.184314" />
<rect x="11" y="0" width="1" height="1" fill="#881021" opacity="0.184314" />
<rect x="12" y="0" width="1" height="1" fill="#871022" opacity="0.623529" />
<rect x="13" y="0" width="2" height="1" fill="#871023" opacity="0.749020" />
<rect x="15" y="0" width="1" height="1" fill="#871022" opacity="0.623529" />
<rect x="16" y="0" width="1" height="1" fill="#881021" opacity="0.184314" />
<rect x="0" y="1" width="1" height="1" fill="#881122" opacity="0.058824" />
<rect x="1" y="1" width="1" height="1" fill="#871022" opacity="0.874510" />
<rect x="2" y="1" width="4" height="1" fill="#871023" />
<rect x="6" y="1" width="1" height="1" fill="#871022" opacity="0.874510" />
<rect x="7" y="1" width="1" height="1" fill="#881122" opacity="0.058824" />
<rect x="10" y="1" width="1" height="1" fill="#881122" opacity="0.058824" />
<rect x="11" y="1" width="1" height="1" fill="#871022" opacity="0.874510" />
<rect x="12" y="1" width="4" height="1" fill="#871023" />
<rect x="16" y="1" width="1" height="1" fill="#871022" opacity="0.874510" />
<rect x="17" y="1" width="1" height="1" fill="#881122" opacity="0.058824" />
<rect x="0" y="2" width="1" height="1" fill="#861023" opacity="0.686275" />
<rect x="1" y="2" width="1" height="4" fill="#871023" />
<rect x="2" y="2" width="1" height="1" fill="#A52439" />
<rect x="3" y="2" width="2" height="1" fill="#D9485F" />
<rect x="5" y="2" width="1" height="1" fill="#AC293E" />
<rect x="6" y="2" width="1" height="1" fill="#871023" />
<rect x="7" y="2" width="1" height="1" fill="#871022" opacity="0.874510" />
<rect x="8" y="2" width="2" height="1" fill="#881021" opacity="0.184314" />
<rect x="10" y="2" width="1" height="1" fill="#871022" opacity="0.874510" />
<rect x="11" y="2" width="1" height="1" fill="#871023" />
<rect x="12" y="2" width="1" height="1" fill="#AC293E" />
<rect x="13" y="2" width="2" height="1" fill="#D9485F" />
<rect x="15" y="2" width="1" height="1" fill="#A52439" />
<rect x="16" y="2" width="1" height="4" fill="#871023" />
<rect x="17" y="2" width="1" height="1" fill="#861023" opacity="0.686275" />
<rect x="0" y="3" width="1" height="2" fill="#871023" />
<rect x="2" y="3" width="1" height="1" fill="#E8526A" />
<rect x="3" y="3" width="3" height="3" fill="#FF627B" />
<rect x="6" y="3" width="1" height="1" fill="#B42E44" />
<rect x="7" y="3" width="1" height="1" fill="#871023" />
<rect x="8" y="3" width="2" height="1" fill="#861022" opacity="0.937255" />
<rect x="10" y="3" width="1" height="1" fill="#871023" />
<rect x="11" y="3" width="1" height="1" fill="#B42E44" />
<rect x="12" y="3" width="3" height="3" fill="#FF627B" />
<rect x="15" y="3" width="1" height="1" fill="#E8526A" />
<rect x="17" y="3" width="1" height="2" fill="#871023" />
<rect x="2" y="4" width="1" height="1" fill="#F05770" />
<rect x="6" y="4" width="1" height="5" fill="#FF627B" />
<rect x="7" y="4" width="1" height="1" fill="#A52439" />
<rect x="8" y="4" width="2" height="1" fill="#871023" />
<rect x="10" y="4" width="1" height="1" fill="#A52439" />
<rect x="11" y="4" width="1" height="5" fill="#FF627B" />
<rect x="15" y="4" width="1" height="1" fill="#F05770" />
<rect x="0" y="5" width="1" height="1" fill="#871023" opacity="0.749020" />
<rect x="2" y="5" width="1" height="1" fill="#C3394F" />
<rect x="7" y="5" width="1" height="1" fill="#F75C75" />
<rect x="8" y="5" width="2" height="1" fill="#9D1F33" />
<rect x="10" y="5" width="1" height="1" fill="#F75C75" />
<rect x="15" y="5" width="1" height="1" fill="#C3394F" />
<rect x="17" y="5" width="1" height="1" fill="#871023" opacity="0.749020" />
<rect x="0" y="6" width="1" height="1" fill="#881021" opacity="0.184314" />
<rect x="1" y="6" width="1" height="1" fill="#861022" opacity="0.937255" />
<rect x="2" y="6" width="1" height="1" fill="#871023" />
<rect x="3" y="6" width="1" height="1" fill="#D2435A" />
<rect x="4" y="6" width="2" height="1" fill="#FF627B" />
<rect x="7" y="6" width="1" height="7" fill="#FF627B" />
<rect x="8" y="6" width="2" height="1" fill="#F75C75" />
<rect x="10" y="6" width="1" height="7" fill="#FF627B" />
<rect x="12" y="6" width="2" height="1" fill="#FF627B" />
<rect x="14" y="6" width="1" height="1" fill="#D2435A" />
<rect x="15" y="6" width="1" height="1" fill="#871023" />
<rect x="16" y="6" width="1" height="1" fill="#861022" opacity="0.937255" />
<rect x="17" y="6" width="1" height="1" fill="#881021" opacity="0.184314" />
<rect x="1" y="7" width="1" height="1" fill="#881021" opacity="0.184314" />
<rect x="2" y="7" width="1" height="1" fill="#861022" opacity="0.937255" />
<rect x="3" y="7" width="1" height="2" fill="#871023" />
<rect x="4" y="7" width="1" height="1" fill="#BB3349" />
<rect x="5" y="7" width="1" height="1" fill="#FF627B" />
<rect x="8" y="7" width="2" height="5" fill="#FF627B" />
<rect x="12" y="7" width="1" height="1" fill="#FF627B" />
<rect x="13" y="7" width="1" height="1" fill="#BB3349" />
<rect x="14" y="7" width="1" height="2" fill="#871023" />
<rect x="15" y="7" width="1" height="1" fill="#861022" opacity="0.937255" />
<rect x="16" y="7" width="1" height="1" fill="#881021" opacity="0.184314" />
<rect x="2" y="8" width="1" height="1" fill="#861023" opacity="0.372549" />
<rect x="4" y="8" width="1" height="2" fill="#871023" />
<rect x="5" y="8" width="1" height="1" fill="#B42E44" />
<rect x="12" y="8" width="1" height="1" fill="#B42E44" />
<rect x="13" y="8" width="1" height="2" fill="#871023" />
<rect x="15" y="8" width="1" height="1" fill="#861023" opacity="0.372549" />
<rect x="2" y="9" width="1" height="1" fill="#881021" opacity="0.184314" />
<rect x="3" y="9" width="1" height="1" fill="#861022" opacity="0.937255" />
<rect x="5" y="9" width="1" height="1" fill="#9D1F33" />
<rect x="6" y="9" width="1" height="1" fill="#F75C75" />
<rect x="11" y="9" width="1" height="1" fill="#F75C75" />
<rect x="12" y="9" width="1" height="1" fill="#9D1F33" />
<rect x="14" y="9" width="1" height="1" fill="#861022" opacity="0.937255" />
<rect x="15" y="9" width="1" height="1" fill="#881021" opacity="0.184314" />
<rect x="1" y="10" width="1" height="1" fill="#881122" opacity="0.058824" />
<rect x="2" y="10" width="1" height="1" fill="#871022" opacity="0.874510" />
<rect x="3" y="10" width="1" height="1" fill="#871023" />
<rect x="4" y="10" width="1" height="1" fill="#9D1F33" />
<rect x="5" y="10" width="1" height="1" fill="#F75C75" />
<rect x="6" y="10" width="1" height="4" fill="#FF627B" />
<rect x="11" y="10" width="1" height="4" fill="#FF627B" />
<rect x="12" y="10" width="1" height="1" fill="#F75C75" />
<rect x="13" y="10" width="1" height="1" fill="#9D1F33" />
<rect x="14" y="10" width="1" height="1" fill="#871023" />
<rect x="15" y="10" width="1" height="1" fill="#871022" opacity="0.874510" />
<rect x="16" y="10" width="1" height="1" fill="#881122" opacity="0.058824" />
<rect x="0" y="11" width="1" height="1" fill="#881122" opacity="0.058824" />
<rect x="1" y="11" width="1" height="1" fill="#861022" opacity="0.811765" />
<rect x="2" y="11" width="1" height="1" fill="#871023" />
<rect x="3" y="11" width="1" height="1" fill="#B42E44" />
<rect x="4" y="11" width="2" height="4" fill="#FF627B" />
<rect x="12" y="11" width="2" height="4" fill="#FF627B" />
<rect x="14" y="11" width="1" height="1" fill="#B42E44" />
<rect x="15" y="11" width="1" height="1" fill="#871023" />
<rect x="16" y="11" width="1" height="1" fill="#861022" opacity="0.811765" />
<rect x="17" y="11" width="1" height="1" fill="#881122" opacity="0.058824" />
<rect x="0" y="12" width="1" height="1" fill="#861023" opacity="0.686275" />
<rect x="1" y="12" width="1" height="4" fill="#871023" />
<rect x="2" y="12" width="1" height="1" fill="#AC293E" />
<rect x="3" y="12" width="1" height="3" fill="#FF627B" />
<rect x="8" y="12" width="2" height="1" fill="#B42E44" />
<rect x="14" y="12" width="1" height="3" fill="#FF627B" />
<rect x="15" y="12" width="1" height="1" fill="#AC293E" />
<rect x="16" y="12" width="1" height="4" fill="#871023" />
<rect x="17" y="12" width="1" height="1" fill="#861023" opacity="0.686275" />
<rect x="0" y="13" width="1" height="2" fill="#871023" />
<rect x="2" y="13" width="1" height="1" fill="#E8526A" />
<rect x="7" y="13" width="1" height="1" fill="#BB3349" />
<rect x="8" y="13" width="2" height="2" fill="#871023" />
<rect x="10" y="13" width="1" height="1" fill="#BB3349" />
<rect x="15" y="13" width="1" height="1" fill="#E8526A" />
<rect x="17" y="13" width="1" height="2" fill="#871023" />
<rect x="2" y="14" width="1" height="1" fill="#F05770" />
<rect x="6" y="14" width="1" height="1" fill="#D2435A" />
<rect x="7" y="14" width="1" height="2" fill="#871023" />
<rect x="10" y="14" width="1" height="2" fill="#871023" />
<rect x="11" y="14" width="1" height="1" fill="#D2435A" />
<rect x="15" y="14" width="1" height="1" fill="#F05770" />
<rect x="0" y="15" width="1" height="1" fill="#871023" opacity="0.749020" />
<rect x="2" y="15" width="1" height="1" fill="#BB3349" />
<rect x="3" y="15" width="2" height="1" fill="#F75C75" />
<rect x="5" y="15" width="1" height="1" fill="#CA3E54" />
<rect x="6" y="15" width="1" height="1" fill="#871023" />
<rect x="8" y="15" width="2" height="1" fill="#861023" opacity="0.372549" />
<rect x="11" y="15" width="1" height="1" fill="#871023" />
<rect x="12" y="15" width="1" height="1" fill="#CA3E54" />
<rect x="13" y="15" width="2" height="1" fill="#F75C75" />
<rect x="15" y="15" width="1" height="1" fill="#BB3349" />
<rect x="17" y="15" width="1" height="1" fill="#871023" opacity="0.749020" />
<rect x="0" y="16" width="1" height="1" fill="#881021" opacity="0.184314" />
<rect x="1" y="16" width="1" height="1" fill="#861022" opacity="0.937255" />
<rect x="2" y="16" width="4" height="1" fill="#871023" />
<rect x="6" y="16" width="1" height="1" fill="#861022" opacity="0.937255" />
<rect x="7" y="16" width="1" height="1" fill="#881021" opacity="0.184314" />
<rect x="10" y="16" width="1" height="1" fill="#881021" opacity="0.184314" />
<rect x="11" y="16" width="1" height="1" fill="#861022" opacity="0.937255" />
<rect x="12" y="16" width="4" height="1" fill="#871023" />
<rect x="16" y="16" width="1" height="1" fill="#861022" opacity="0.937255" />
<rect x="17" y="16" width="1" height="1" fill="#881021" opacity="0.184314" />
<rect x="1" y="17" width="1" height="1" fill="#841021" opacity="0.121569" />
<rect x="2" y="17" width="1" height="1" fill="#861022" opacity="0.811765" />
<rect x="3" y="17" width="2" height="1" fill="#871023" />
<rect x="5" y="17" width="1" height="1" fill="#861022" opacity="0.811765" />
<rect x="6" y="17" width="1" height="1" fill="#841021" opacity="0.121569" />
<rect x="11" y="17" width="1" height="1" fill="#841021" opacity="0.121569" />
<rect x="12" y="17" width="1" height="1" fill="#861022" opacity="0.811765" />
<rect x="13" y="17" width="2" height="1" fill="#871023" />
<rect x="15" y="17" width="1" height="1" fill="#861022" opacity="0.811765" />
<rect x="16" y="17" width="1" height="1" fill="#841021" opacity="0.121569" />
</svg>