<?xml version="1.0" encoding="UTF-8" ?>
<svg version="1.1" width="32" height="32" xmlns="http://www.w3.org/2000/svg" shape-rendering="crispEdges">
<rect x="8" y="5" width="16" height="2" fill="#323821" />
<rect x="7" y="7" width="2" height="1" fill="#323821" />
<rect x="9" y="7" width="6" height="2" fill="#88A043" />
<rect x="15" y="7" width="9" height="1" fill="#9FBC4D" />
<rect x="24" y="7" width="1" height="9" fill="#323821" />
<rect x="5" y="8" width="2" height="4" fill="#323821" />
<rect x="7" y="8" width="1" height="3" fill="#C43F31" />
<rect x="8" y="8" width="1" height="4" fill="#323821" />
<rect x="15" y="8" width="1" height="8" fill="#88A043" />
<rect x="16" y="8" width="3" height="1" fill="#9FBC4D" />
<rect x="19" y="8" width="4" height="1" fill="#88A043" />
<rect x="23" y="8" width="1" height="1" fill="#9FBC4D" />
<rect x="9" y="9" width="2" height="3" fill="#88A043" />
<rect x="11" y="9" width="1" height="4" fill="#FFFFFF" />
<rect x="12" y="9" width="1" height="3" fill="#323821" />
<rect x="13" y="9" width="2" height="4" fill="#FFFFFF" />
<rect x="16" y="9" width="1" height="6" fill="#9FBC4D" />
<rect x="17" y="9" width="2" height="2" fill="#323821" />
<rect x="19" y="9" width="4" height="6" fill="#9FBC4D" />
<rect x="23" y="9" width="1" height="2" fill="#323821" />
<rect x="7" y="11" width="1" height="5" fill="#323821" />
<rect x="17" y="11" width="2" height="6" fill="#9FBC4D" />
<rect x="23" y="11" width="1" height="4" fill="#9FBC4D" />
<rect x="8" y="12" width="1" height="3" fill="#C43F31" />
<rect x="9" y="12" width="2" height="5" fill="#323821" />
<rect x="12" y="12" width="1" height="1" fill="#FFFFFF" />
<rect x="11" y="13" width="4" height="3" fill="#88A043" />
<rect x="8" y="15" width="1" height="1" fill="#323821" />
<rect x="16" y="15" width="1" height="1" fill="#88A043" />
<rect x="19" y="15" width="5" height="1" fill="#323821" />
<rect x="11" y="16" width="1" height="4" fill="#323821" />
<rect x="12" y="16" width="3" height="1" fill="#88A043" />
<rect x="15" y="16" width="2" height="1" fill="#9FBC4D" />
<rect x="19" y="16" width="1" height="1" fill="#9FBC4D" />
<rect x="20" y="16" width="1" height="2" fill="#323821" />
<rect x="12" y="17" width="1" height="10" fill="#88A043" />
<rect x="13" y="17" width="2" height="4" fill="#D8B78F" />
<rect x="15" y="17" width="4" height="1" fill="#FFD7A8" />
<rect x="19" y="17" width="1" height="2" fill="#8F563B" />
<rect x="24" y="17" width="2" height="2" fill="#8F563B" />
<rect x="15" y="18" width="3" height="1" fill="#FFD7A8" />
<rect x="18" y="18" width="1" height="2" fill="#8F563B" />
<rect x="20" y="18" width="2" height="1" fill="#8F563B" />
<rect x="23" y="18" width="1" height="1" fill="#FFFFFF" />
<rect x="8" y="19" width="3" height="1" fill="#323821" />
<rect x="15" y="19" width="2" height="2" fill="#88A043" />
<rect x="17" y="19" width="1" height="1" fill="#9FBC4D" />
<rect x="19" y="19" width="2" height="2" fill="#663931" />
<rect x="21" y="19" width="1" height="1" fill="#8F563B" />
<rect x="22" y="19" width="1" height="1" fill="#FFFFFF" />
<rect x="23" y="19" width="1" height="1" fill="#8F563B" />
<rect x="24" y="19" width="1" height="2" fill="#663931" />
<rect x="25" y="19" width="1" height="2" fill="#8F563B" />
<rect x="8" y="20" width="1" height="3" fill="#323821" />
<rect x="9" y="20" width="3" height="1" fill="#9FBC4D" />
<rect x="17" y="20" width="2" height="2" fill="#88A043" />
<rect x="21" y="20" width="1" height="1" fill="#663931" />
<rect x="22" y="20" width="1" height="1" fill="#8F563B" />
<rect x="23" y="20" width="1" height="3" fill="#663931" />
<rect x="9" y="21" width="2" height="3" fill="#323821" />
<rect x="11" y="21" width="1" height="2" fill="#88A043" />
<rect x="13" y="21" width="2" height="2" fill="#88A043" />
<rect x="15" y="21" width="1" height="1" fill="#9FBC4D" />
<rect x="16" y="21" width="1" height="1" fill="#8F563B" />
<rect x="19" y="21" width="1" height="1" fill="#88A043" />
<rect x="20" y="21" width="1" height="1" fill="#663931" />
<rect x="21" y="21" width="1" height="1" fill="#8F563B" />
<rect x="22" y="21" width="1" height="3" fill="#663931" />
<rect x="24" y="21" width="1" height="3" fill="#8F563B" />
<rect x="15" y="22" width="1" height="1" fill="#8F563B" />
<rect x="16" y="22" width="4" height="1" fill="#663931" />
<rect x="20" y="22" width="1" height="1" fill="#8F563B" />
<rect x="21" y="22" width="1" height="3" fill="#663931" />
<rect x="11" y="23" width="1" height="5" fill="#323821" />
<rect x="13" y="23" width="1" height="1" fill="#88A043" />
<rect x="14" y="23" width="1" height="2" fill="#9FBC4D" />
<rect x="15" y="23" width="4" height="1" fill="#663931" />
<rect x="19" y="23" width="1" height="3" fill="#8F563B" />
<rect x="20" y="23" width="1" height="2" fill="#663931" />
<rect x="23" y="23" width="1" height="1" fill="#8F563B" />
<rect x="13" y="24" width="1" height="1" fill="#9FBC4D" />
<rect x="15" y="24" width="1" height="1" fill="#000000" />
<rect x="16" y="24" width="1" height="1" fill="#8F563B" />
<rect x="17" y="24" width="2" height="1" fill="#663931" />
<rect x="22" y="24" width="1" height="1" fill="#8F563B" />
<rect x="13" y="25" width="2" height="2" fill="#323821" />
<rect x="16" y="25" width="1" height="3" fill="#323821" />
<rect x="17" y="25" width="2" height="1" fill="#8F563B" />
<rect x="20" y="25" width="1" height="1" fill="#8F563B" />
<rect x="17" y="26" width="2" height="1" fill="#88A043" />
<rect x="19" y="26" width="1" height="1" fill="#323821" />
<rect x="12" y="27" width="1" height="1" fill="#323821" />
<rect x="17" y="27" width="2" height="1" fill="#323821" />
</svg>